<svg xmlns="http://www.w3.org/2000/svg" xmlns:xlink="http://www.w3.org/1999/xlink" width="20" height="20" viewBox="0 0 20 20">
  <defs>
    <clipPath id="clip-Icons">
      <rect width="20" height="20"/>
    </clipPath>
  </defs>
  <g id="Icons" clip-path="url(#clip-Icons)">
    <g id="noun_bed_room_2226148" data-name="noun_bed room_2226148" transform="translate(-1 -21)">
      <g id="Group_5407" data-name="Group 5407" transform="translate(1 26)">
        <path id="Path_13022" data-name="Path 13022" d="M1,978.362v9.8H2.633v-9.8Zm3.878,1.633a1.429,1.429,0,1,0,1.429,1.429A1.429,1.429,0,0,0,4.878,979.995Zm4.9,0a2.647,2.647,0,0,0-2.653,2.653c0,.068,0,.137.006.2H18.545c.005-.067.006-.136.006-.2a2.647,2.647,0,0,0-2.653-2.653H9.775Zm9.592,2.449v5.714H21v-5.714ZM3.449,983.668v2.449h15.1v-2.449Z" transform="translate(-1 -978.362)" fill="#00367a"/>
      </g>
    </g>
  </g>
</svg>
