<svg xmlns="http://www.w3.org/2000/svg" xmlns:xlink="http://www.w3.org/1999/xlink" width="20" height="20" viewBox="0 0 20 20">
  <defs>
    <clipPath id="clip-Icons">
      <rect width="20" height="20"/>
    </clipPath>
  </defs>
  <g id="Icons" clip-path="url(#clip-Icons)">
    <g id="noun_Family_1780009" transform="translate(-8 -18)">
      <g id="Group_9698" data-name="Group 9698" transform="translate(8 21)">
        <path id="Path_13116" data-name="Path 13116" d="M12.048,973.362a1.922,1.922,0,0,0,0,3.809,1.922,1.922,0,0,0,0-3.809Zm11.429,0a1.922,1.922,0,0,0,0,3.809,1.922,1.922,0,0,0,0-3.809ZM18,974.315a2.158,2.158,0,0,0,0,4.286,2.158,2.158,0,0,0,0-4.286Zm-5.238,5c-2.638,0-4.762,1.329-4.762,3.572v2.619h4.524v-.476c0-2.147,1.767-3.867,4.092-4.367A5.416,5.416,0,0,0,12.762,979.315Zm10.476,0a5.416,5.416,0,0,0-3.854,1.347c2.325.5,4.092,2.221,4.092,4.367v.476H28v-2.619C28,980.644,25.876,979.315,23.238,979.315ZM18,980.981c-2.77,0-5,1.805-5,4.048v2.143H23v-2.143C23,982.787,20.77,980.981,18,980.981Z" transform="translate(-8 -973.362)" fill="#00367a"/>
      </g>
    </g>
  </g>
</svg>
