<svg xmlns="http://www.w3.org/2000/svg" xmlns:xlink="http://www.w3.org/1999/xlink" width="20" height="20" viewBox="0 0 20 20">
  <defs>
    <clipPath id="clip-Icons">
      <rect width="20" height="20"/>
    </clipPath>
  </defs>
  <g id="Icons" clip-path="url(#clip-Icons)">
    <g id="noun_selection_2900918" transform="translate(-1.5 -1.5)">
      <g id="Group_9700" data-name="Group 9700" transform="translate(2.5 2.5)">
        <path id="Path_13121" data-name="Path 13121" d="M11.5,2.5a9,9,0,1,0,9,9A9.008,9.008,0,0,0,11.5,2.5Z" transform="translate(-2.5 -2.5)" fill="#00367a"/>
        <path id="Path_13122" data-name="Path 13122" d="M35.158,35.482l-3.294,3.294-1.543-1.543a.523.523,0,1,0-.739.739l1.912,1.912a.523.523,0,0,0,.37.161.465.465,0,0,0,.37-.161L35.9,36.221a.523.523,0,0,0-.739-.739Z" transform="translate(-23.729 -28.683)" fill="#fff"/>
      </g>
    </g>
  </g>
</svg>
