<svg id="ed7d34e0-b17e-4ce9-a91c-533ff00748b5" data-name="Layer 1" xmlns="http://www.w3.org/2000/svg" viewBox="0 0 75 75"><title>e-mail-white</title><rect width="75" height="75" style="fill:#fff;opacity:0"/><path d="M18.58,16H69.87A3.07,3.07,0,0,1,73,19.33L70.37,54.67a3.58,3.58,0,0,1-.71,1.87,1.52,1.52,0,0,1-.34.47,1.42,1.42,0,0,1-.33.21A3.53,3.53,0,0,1,66.8,58H15.47a3.07,3.07,0,0,1-3.1-3.35l.73-6h2.63l-.63,4.5h0l19.16-17.9L17.48,20.73,17.31,23H14.64l.26-3.58A3.74,3.74,0,0,1,18.58,16ZM36.21,37.07,16.3,55.67H66.19L49.82,37.07l-6.21,5h0a1.27,1.27,0,0,1-1.63,0l-5.77-5Zm15.67-1.88,16,18.22,2.41-33L51.88,35.19ZM19.2,18.33,43,38.93l25.68-20.6Z" style="fill:#fff"/><path d="M2.29,45.17a1.17,1.17,0,0,1-1.15-1.34,1.22,1.22,0,0,1,1.24-1H17.59a1.24,1.24,0,0,1,1.25,1,1.17,1.17,0,0,1-1.16,1.34ZM8.51,37a1.17,1.17,0,0,1-1.15-1.34,1.22,1.22,0,0,1,1.24-1H21.77a1.23,1.23,0,0,1,1.25,1A1.17,1.17,0,0,1,21.86,37ZM2.29,29.42a1.17,1.17,0,0,1-1.15-1.34,1.22,1.22,0,0,1,1.24-1H17.59a1.24,1.24,0,0,1,1.25,1,1.17,1.17,0,0,1-1.16,1.34Z" style="fill:#ff5d2e"/></svg>