<svg id="b0ec119f-f792-4968-b75b-a29659717f1f" data-name="Layer 1" xmlns="http://www.w3.org/2000/svg" viewBox="0 0 75 75"><title>instagram-white</title><rect width="75" height="75" style="fill:#fff;opacity:0"/><path d="M23.47,6H50.53A18.34,18.34,0,0,1,69,24.1V50.9A18.34,18.34,0,0,1,50.53,69H23.47A18.34,18.34,0,0,1,5,50.9V24.1A18.34,18.34,0,0,1,23.47,6ZM37.23,20.59A17.89,17.89,0,1,1,19.34,38.48,17.89,17.89,0,0,1,37.23,20.59Zm0,6.05A11.85,11.85,0,1,1,25.38,38.48,11.85,11.85,0,0,1,37.23,26.64Zm17.3-8.53A2.91,2.91,0,1,1,51.63,21,2.91,2.91,0,0,1,54.53,18.11ZM25.59,11H48.42A15.45,15.45,0,0,1,64,26.23V48.77A15.45,15.45,0,0,1,48.42,64H25.59A15.45,15.45,0,0,1,10,48.77V26.23A15.45,15.45,0,0,1,25.59,11Z" style="fill:#fff;fill-rule:evenodd"/></svg>