<svg id="e40ba41b-5338-4a53-b425-c5a2166bf5c3" data-name="Layer 1" xmlns="http://www.w3.org/2000/svg" viewBox="0 0 75 75"><title>linkedin-white</title><rect width="75" height="75" style="fill:#fff;opacity:0"/><path d="M28,24.54H41.14v6.22h.19c1.82-3,6.28-6.22,12.94-6.22,13.84,0,16.4,8,16.4,18.34V64H57V45.28c0-4.47-.1-10.21-7.1-10.21S41.69,39.93,41.69,45V64H28V24.54Zm-9.47-11a6.85,6.85,0,0,1-7.11,6.57,6.86,6.86,0,0,1-7.11-6.57A6.87,6.87,0,0,1,11.44,7,6.86,6.86,0,0,1,18.55,13.58Zm-14.22,11H18.55V64H4.33Z" style="fill:#fff;fill-rule:evenodd"/></svg>