<svg id="b246d4d3-95cf-44c6-8a27-a2957b9a4aae" data-name="Layer 1" xmlns="http://www.w3.org/2000/svg" viewBox="0 0 75 75"><title>twitter-white</title><rect width="75" height="75" style="fill:#fff;opacity:0"/><path d="M73,14.81a28.71,28.71,0,0,1-8.35,2.29,14.66,14.66,0,0,0,6.4-8,29.28,29.28,0,0,1-9.24,3.53A14.56,14.56,0,0,0,37,25.85,41.28,41.28,0,0,1,7,10.64a14.58,14.58,0,0,0-2,7.32h0a14.51,14.51,0,0,0,6.47,12.1,14.59,14.59,0,0,1-6.6-1.81v.18A14.55,14.55,0,0,0,16.6,42.7,14.65,14.65,0,0,1,10,43,14.59,14.59,0,0,0,23.61,53.06,29.14,29.14,0,0,1,5.54,59.29a28.65,28.65,0,0,1-3.48-.21,41.09,41.09,0,0,0,22.31,6.54c26.76,0,41.41-22.17,41.41-41.4,0-.64,0-1.26,0-1.88A29.14,29.14,0,0,0,73,14.82Z" style="fill:#fff;fill-rule:evenodd"/></svg>