<svg xmlns="http://www.w3.org/2000/svg" xmlns:xlink="http://www.w3.org/1999/xlink" width="20" height="20" viewBox="0 0 20 20">
  <defs>
    <clipPath id="clip-Icons">
      <rect width="20" height="20"/>
    </clipPath>
  </defs>
  <g id="Icons" clip-path="url(#clip-Icons)">
    <g id="noun_remove_file_225971" data-name="noun_remove file_225971" transform="translate(-7.9 -7.199)">
      <path id="Path_8422" data-name="Path 8422" d="M26.31,19.723a4.345,4.345,0,1,0,0,6.145A4.329,4.329,0,0,0,26.31,19.723Zm-1,4.322-.818.818L23.226,23.6l-1.262,1.262-.818-.818,1.262-1.238-1.262-1.262.818-.818,1.262,1.262,1.262-1.262.818.818-1.238,1.262Zm-17.406.7V12.363a1.012,1.012,0,0,1,.093-.444,1.335,1.335,0,0,1,.257-.374L12.456,7.5a1.15,1.15,0,0,1,.35-.234,1.323,1.323,0,0,1,.421-.07h8.107A2.463,2.463,0,0,1,23.81,9.676V17.27a1.545,1.545,0,0,0-.584-.07,4.5,4.5,0,0,0-.561.023V9.653a1.306,1.306,0,0,0-1.308-1.308H13.6v1.892a2.493,2.493,0,0,1-2.476,2.476H9.045V24.722a1.306,1.306,0,0,0,1.308,1.308H18.67A5.921,5.921,0,0,0,19.792,27.2H10.376A2.443,2.443,0,0,1,7.9,24.746Z" fill="#d3655c"/>
    </g>
  </g>
</svg>
