<svg xmlns="http://www.w3.org/2000/svg" xmlns:xlink="http://www.w3.org/1999/xlink" width="20" height="20" viewBox="0 0 20 20">
  <defs>
    <clipPath id="clip-Icons">
      <rect width="20" height="20"/>
    </clipPath>
  </defs>
  <g id="Icons" clip-path="url(#clip-Icons)">
    <g id="Group_2109" data-name="Group 2109">
      <path id="Path_8257" data-name="Path 8257" d="M19.892,12.863c-.475.1-.714.686-.9,1.078a11.522,11.522,0,0,0-.555,1.677.7.7,0,0,1-.293.448.528.528,0,0,1-.546-.026l-.011-.008a.515.515,0,0,1-.224-.425V9.417a.581.581,0,0,0-.459-.583.56.56,0,0,0-.66.551v4.429a.367.367,0,1,1-.735,0V8.543a.582.582,0,0,0-.459-.583.56.56,0,0,0-.66.551v5.251a.42.42,0,1,1-.839,0V9.382a.582.582,0,0,0-.459-.583.56.56,0,0,0-.66.551v5.059a.35.35,0,0,1-.7,0V10.747a.581.581,0,0,0-.53-.591.56.56,0,0,0-.59.559v6.78a4.521,4.521,0,0,0,4.427,4.554c2.372.017,4.027-1.9,4.493-4.145l.74-4.761a.3.3,0,0,0-.384-.279m1.343,8.371A8.817,8.817,0,1,1,23.817,15a8.76,8.76,0,0,1-2.582,6.234m.836-13.305A10,10,0,1,0,25,15a9.935,9.935,0,0,0-2.929-7.071" transform="translate(-5 -5)" fill="#475f7b" fill-rule="evenodd"/>
    </g>
  </g>
</svg>
