<svg xmlns="http://www.w3.org/2000/svg" xmlns:xlink="http://www.w3.org/1999/xlink" width="20" height="20" viewBox="0 0 20 20">
  <defs>
    <clipPath id="clip-Icons">
      <rect width="20" height="20"/>
    </clipPath>
  </defs>
  <g id="Icons" clip-path="url(#clip-Icons)">
    <g id="noun_Pending_Ticket_1485870" data-name="noun_Pending Ticket_1485870" transform="translate(1)">
      <path id="Path_8423" data-name="Path 8423" d="M16.713,18.656H15.276V16.681a.431.431,0,1,0-.862,0v2.406a.431.431,0,0,0,.431.431h1.868a.431.431,0,0,0,0-.862Zm9.092-4.267L15.621,4.2a1.459,1.459,0,0,0-2.065,0L12.107,5.653l.305.3a1.395,1.395,0,1,1-1.973,1.973l-.3-.305L8.649,9.112a1.46,1.46,0,0,0,0,2.065l3.96,3.961a4.614,4.614,0,1,0,6.334,6.325,1.46,1.46,0,0,0,1.954-.1l1.485-1.486-.3-.3A1.395,1.395,0,1,1,24.051,17.6l.3.305,1.45-1.45A1.462,1.462,0,0,0,25.806,14.389ZM9.258,10.566a.6.6,0,0,1,0-.845l.9-.9A2.258,2.258,0,0,0,13.3,5.682l.868-.868a.612.612,0,0,1,.845,0l2.551,2.55-5.753,5.753ZM14.99,22.843a3.756,3.756,0,1,1,3.756-3.756A3.76,3.76,0,0,1,14.99,22.843Zm10.206-7-.869.869a2.258,2.258,0,0,0-3.134,3.134l-.905.9a.612.612,0,0,1-.845,0l-.11-.11a4.605,4.605,0,0,0-5.9-5.9l-1.017-1.017,5.753-5.753L25.2,15A.6.6,0,0,1,25.2,15.844Z" transform="translate(-8.221 -3.776)" fill="#f26f22"/>
    </g>
  </g>
</svg>
