<svg xmlns="http://www.w3.org/2000/svg" xmlns:xlink="http://www.w3.org/1999/xlink" width="20" height="20" viewBox="0 0 20 20">
  <defs>
    <clipPath id="clip-Icons">
      <rect width="20" height="20"/>
    </clipPath>
  </defs>
  <g id="Icons" clip-path="url(#clip-Icons)">
    <g id="noun_Failed_Sync_1416594" data-name="noun_Failed Sync_1416594" transform="translate(-5.629 -8.501)">
      <g id="Group_2817" data-name="Group 2817" transform="translate(6.2 10.5)">
        <path id="Path_8415" data-name="Path 8415" d="M46.748,39.848l-.548-.512A6.943,6.943,0,0,0,47.991,35.9l.731.146A7.941,7.941,0,0,1,46.748,39.848Z" transform="translate(-31.576 -26.614)" fill="#475f7b" stroke="#475f7b" stroke-width="0.4"/>
        <g id="Group_2816" data-name="Group 2816">
          <path id="Path_8416" data-name="Path 8416" d="M18.487,11.231A7.215,7.215,0,0,1,25.543,17.3l-1.755-1.426-.329.439L26.019,18.4l1.9-2.705-.439-.329-1.206,1.682A7.956,7.956,0,0,0,18.487,10.5a7.748,7.748,0,0,0-5.447,2.194l-1.828-1.718-.512.548L25.726,25.745l.512-.548L13.588,13.205A6.942,6.942,0,0,1,18.487,11.231Z" transform="translate(-9.055 -10.5)" fill="#475f7b" stroke="#475f7b" stroke-width="0.4"/>
          <path id="Path_8417" data-name="Path 8417" d="M12.828,20.2l-.585-.4A7.794,7.794,0,0,0,11,22.688l.731.146A6.421,6.421,0,0,1,12.828,20.2Z" transform="translate(-9.245 -16.4)" fill="#475f7b" stroke="#475f7b" stroke-width="0.4"/>
          <path id="Path_8418" data-name="Path 8418" d="M15.632,39.066A7.215,7.215,0,0,1,8.576,33l1.755,1.426.329-.439L8.1,31.9,6.2,34.605l.439.329,1.206-1.682a7.9,7.9,0,0,0,12.467,5.009l-.439-.585A7.1,7.1,0,0,1,15.632,39.066Z" transform="translate(-6.2 -24.076)" fill="#475f7b" stroke="#475f7b" stroke-width="0.4"/>
        </g>
      </g>
    </g>
  </g>
</svg>
