<svg xmlns="http://www.w3.org/2000/svg" xmlns:xlink="http://www.w3.org/1999/xlink" width="34" height="34" viewBox="0 0 34 34">
  <defs>
    <clipPath id="clip-Aircraft-icon">
      <rect width="34" height="34"/>
    </clipPath>
  </defs>
  <g id="Aircraft-icon" clip-path="url(#clip-Aircraft-icon)">
    <g id="noun_Airplane_12604" transform="matrix(0.914, -0.407, 0.407, 0.914, -952.122, -56.704)">
      <path id="Path_8611" data-name="Path 8611" d="M839.464,504.75c-.075-.319-.156-.637-.215-.962C839.31,504.113,839.387,504.43,839.464,504.75Z" transform="translate(-0.537 -39.215)" fill="#888"/>
      <path id="Path_8612" data-name="Path 8612" d="M847.537,508.258h-7.223a19.84,19.84,0,0,0,3.042,6.227Z" transform="translate(-1.177 -42.776)" fill="#888"/>
      <path id="Path_8613" data-name="Path 8613" d="M855.355,444.5a16.923,16.923,0,0,0-16.727,19.952h9.779l-5.657,8.426a17,17,0,0,0,2.125,1.99l8.428-9.745a6.693,6.693,0,0,0,.489-.671h6.062c2.3,0,8.3-.831,8.3-3.133s-6-3.132-8.3-3.132h-6.062a6.771,6.771,0,0,0-.489-.67l-8.189-9.47q.69-.522,1.434-.975l8.076,9.338.045.055h5.185c.1,0,10.027.132,10.027,4.855s-9.926,4.855-10.027,4.855h-5.185c-.02.026-.041.05-.062.075l-8.315,9.615a16.994,16.994,0,1,0,9.063-31.365Zm-6.948,13.687H838.7a16.791,16.791,0,0,1,.449-1.723h6.025l-3.4-5.063a17.021,17.021,0,0,1,1.152-1.378Z" transform="translate(0 0)" fill="#888"/>
    </g>
  </g>
</svg>
