<svg xmlns="http://www.w3.org/2000/svg" xmlns:xlink="http://www.w3.org/1999/xlink" width="20" height="20" viewBox="0 0 20 20">
  <defs>
    <clipPath id="clip-Icons">
      <rect width="20" height="20"/>
    </clipPath>
  </defs>
  <g id="Icons" clip-path="url(#clip-Icons)">
    <g id="noun_Child_1765613" transform="translate(-17.925 -10)">
      <g id="Group_3169" data-name="Group 3169" transform="translate(20.925 10)">
        <circle id="Ellipse_515" data-name="Ellipse 515" cx="3.175" cy="3.175" r="3.175" transform="translate(4.094 0)"/>
        <path id="Path_8523" data-name="Path 8523" d="M57.2,90Z" transform="translate(-48.131 -70)"/>
        <path id="Path_8524" data-name="Path 8524" d="M35.044,40.8l-2.85-2.875a2.839,2.839,0,0,0-2-.825H26.219a2.839,2.839,0,0,0-2,.825l-2.9,2.875a1.373,1.373,0,0,0,0,1.925h0a1.338,1.338,0,0,0,1.95,0l1.75-1.75V48.95a1.371,1.371,0,0,0,1.375,1.375,1.387,1.387,0,0,0,1.375-1.375v-3a.425.425,0,1,1,.85,0v3a1.371,1.371,0,0,0,1.375,1.375,1.387,1.387,0,0,0,1.375-1.375V41l1.75,1.75a1.381,1.381,0,0,0,1.95,0h0A1.381,1.381,0,0,0,35.044,40.8Z" transform="translate(-20.925 -30.325)"/>
        <path id="Path_8525" data-name="Path 8525" d="M42.8,90Z" transform="translate(-37.331 -70)"/>
      </g>
    </g>
  </g>
</svg>
