<svg xmlns="http://www.w3.org/2000/svg" width="19" height="25" viewBox="0 0 19 25">
  <g id="Group_3160" data-name="Group 3160" transform="translate(-1235.968 -167.5)">
    <path id="Subtraction_1" data-name="Subtraction 1" d="M15.75,24H2.25A2.271,2.271,0,0,1,0,21.714V10.286A2.271,2.271,0,0,1,2.25,8H3.375V5.714A5.726,5.726,0,0,1,5.021,1.671a5.574,5.574,0,0,1,7.959,0,5.722,5.722,0,0,1,1.646,4.043V8H15.75A2.27,2.27,0,0,1,18,10.286V21.714A2.27,2.27,0,0,1,15.75,24ZM7.692,18.777l-.79.8a4.08,4.08,0,0,0,2.3.692,4.28,4.28,0,0,0,3.072-1.29,4.418,4.418,0,0,0,1.269-3.12h1.686l-2.188-2.223-2.188,2.223h1.615A3.294,3.294,0,0,1,9.2,19.177,3.1,3.1,0,0,1,7.692,18.777ZM3.208,15.862l2.116,2.223,2.188-2.223H5.9a3.3,3.3,0,0,1,3.266-3.317,3.12,3.12,0,0,1,1.506.4l.789-.8a4.064,4.064,0,0,0-2.3-.692A4.281,4.281,0,0,0,6.09,12.742a4.416,4.416,0,0,0-1.268,3.12ZM9,2.17A3.433,3.433,0,0,0,6.54,3.214a3.546,3.546,0,0,0-1.026,2.5V8h6.974V5.714a3.546,3.546,0,0,0-1.026-2.5A3.432,3.432,0,0,0,9,2.17Z" transform="translate(1236.468 168)" fill="none" stroke="#f26f22" stroke-width="1"/>
  </g>
</svg>
