<svg xmlns="http://www.w3.org/2000/svg" xmlns:xlink="http://www.w3.org/1999/xlink" width="24" height="24" viewBox="0 0 24 24">
  <defs>
    <clipPath id="clip-Door">
      <rect width="24" height="24"/>
    </clipPath>
  </defs>
  <g id="Door" clip-path="url(#clip-Door)">
    <g id="noun_Open_Door_3724150" data-name="noun_Open Door_3724150" transform="translate(33.729 33.036) rotate(180)">
      <path id="Path_13098" data-name="Path 13098" d="M33.707,9.41a.455.455,0,0,0-.108-.116c-.009-.007-.013-.019-.023-.025s-.015,0-.022-.007a.427.427,0,0,0-.164-.053.419.419,0,0,0-.043-.009H17.4a.465.465,0,0,0-.453.473V18.28h.907V10.145h13.62l-6.308,3.407a.468.468,0,0,0-.249.416v14.12a.468.468,0,0,0,.249.416l6.308,3.407H17.856V23.778h-.907v8.608a.465.465,0,0,0,.453.473H33.34a.463.463,0,0,0,.2-.055c.012-.006.024-.009.035-.016s.014-.018.023-.025a.456.456,0,0,0,.108-.116.441.441,0,0,0,.034-.052.477.477,0,0,0,.052-.209V9.672a.477.477,0,0,0-.052-.209A.436.436,0,0,0,33.707,9.41ZM27.624,22.368a.454.454,0,1,1-.907,0V19.69a.454.454,0,1,1,.907,0Z" transform="translate(-2.063 0)" fill="#888"/>
      <path id="Path_13099" data-name="Path 13099" d="M17.429,29.308v1.11a.421.421,0,0,0,.726.291l2.824-2.917a.431.431,0,0,0,0-.591l-2.824-2.917a.41.41,0,0,0-.46-.1.421.421,0,0,0-.266.388v1.11H12.553a.423.423,0,0,0-.422.422v2.778a.423.423,0,0,0,.422.422Z" transform="translate(0 -6.468)" fill="#888"/>
    </g>
  </g>
</svg>
