<svg xmlns="http://www.w3.org/2000/svg" xmlns:xlink="http://www.w3.org/1999/xlink" width="48" height="30" viewBox="0 0 48 30">
  <defs>
    <clipPath id="clip-Fav">
      <rect width="48" height="30"/>
    </clipPath>
  </defs>
  <g id="Fav" clip-path="url(#clip-Fav)">
    <g id="Final_Ezytrip_Logo_c2c" data-name="Final Ezytrip Logo c2c" transform="translate(-185.293 -215.628)">
      <path id="path4" d="M198.482,262.091a6.253,6.253,0,0,1-2.346,3.057,6.58,6.58,0,0,1-3.807,1.106,7.47,7.47,0,0,1-5.056-1.7,6.42,6.42,0,0,1,.065-9.339,7.166,7.166,0,0,1,4.912-1.808,5.99,5.99,0,0,1,4.587,1.691,5.8,5.8,0,0,1,1.591,4.136h-7.986a13.169,13.169,0,0,0,.143,1.912,7.217,7.217,0,0,0,.542,1.886,3.636,3.636,0,0,0,1.136,1.47,2.962,2.962,0,0,0,1.847.559,3.474,3.474,0,0,0,2.523-.9,5.873,5.873,0,0,0,1.426-2.25Zm-4.6-3.382q-.026-.286-.039-.676t-.013-.989a5.879,5.879,0,0,0-.386-2.406,1.37,1.37,0,0,0-1.344-.819,1.157,1.157,0,0,0-1.149.793,8.823,8.823,0,0,0-.451,2.432l-.052,1.665Z" transform="translate(0 -27.191)" fill="#00367b" fill-rule="evenodd"/>
      <path id="path6" d="M241.526,266.153q1.249,0,2.757-1.795a17.385,17.385,0,0,0,2.367-3.564h.338v5.879H233.8v-.234l7.856-11.55-1.4-.052a4.11,4.11,0,0,0-2.8,1.691,15.694,15.694,0,0,0-2.406,3.46h-.338v-5.645h12.643v.234l-7.83,11.55,2,.026Z" transform="translate(-35.083 -27.871)" fill="#00367b" fill-rule="evenodd"/>
      <path id="path8" d="M284.136,256.111a5.772,5.772,0,0,0-.52-.923.929.929,0,0,0-.546-.351l-1.015-.078v-.416h8.507v.416h-.39a2.836,2.836,0,0,0-.533.065q-.325.065-.325.533a1.831,1.831,0,0,0,.1.533q.1.325.208.637l2.029,4.839q.26-.624.833-2.042t.91-2.406a5.11,5.11,0,0,0,.338-1.431.709.709,0,0,0-.117-.468,1.216,1.216,0,0,0-.637-.208l-.832-.052v-.416h4.37v.416q-.156,0-.325.013t-.624.091a1.237,1.237,0,0,0-.772.468,14.281,14.281,0,0,0-1.158,2.549q-.846,2.159-1.825,4.578t-2.189,5.021a19.152,19.152,0,0,1-2.268,3.9,3.448,3.448,0,0,1-2.827,1.3,3,3,0,0,1-1.916-.7,2.231,2.231,0,0,1-.871-1.821,2.44,2.44,0,0,1,.707-1.769,2.4,2.4,0,0,1,1.8-.728,2.322,2.322,0,0,1,1.752.65,2.143,2.143,0,0,1,.624,1.535,2.048,2.048,0,0,1-.49,1.431,2.282,2.282,0,0,0-.49.65c.156-.017.316-.035.49-.052a2.935,2.935,0,0,0,1.1-.989,12.5,12.5,0,0,0,.945-1.509c.273-.52.568-1.136.876-1.847q-.572-1.353-1.418-3.343t-1.873-4.383Q284.734,257.412,284.136,256.111Z" transform="translate(-69.758 -27.871)" fill="#00367b" fill-rule="evenodd"/>
      <path id="path18" d="M301.99,225.418a24.212,24.212,0,0,0-4.221,3.528c-3.824,4.024-6.384,8.443-6.384,14.229l-.02-.01a22.48,22.48,0,0,1,10.059-18.92l.566,1.173Z" transform="translate(-76.718 -3.37)" fill="#f36f21" fill-rule="evenodd"/>
      <path id="path20" d="M333.937,222.981c.113-.178.2-2.629.238-2.682a3.218,3.218,0,0,0,.748-.341.979.979,0,0,0-.213-.468,1.949,1.949,0,0,0-.484.214,2.023,2.023,0,0,1,.161-.852c.077-.035.9-.369,1.424-.616a.553.553,0,1,0-.339-.74c-.531.237-1.32.64-1.4.675a2.021,2.021,0,0,1-.751-.435,1.952,1.952,0,0,0,.478-.226.978.978,0,0,0-.215-.467,3.213,3.213,0,0,0-.747.343c-.065-.006-1.978-1.541-2.186-1.573s-.505.059-.472.131,1.436,1.456,1.659,1.75a4.2,4.2,0,0,1,.56,1.108c-.024.066-2.157,1.195-2.271,1.233s-.646-.517-.911-.576-.529.055-.535.119.807.861.727.927c-.062.051-.5.388-.479.431a2.86,2.86,0,0,0,.64-.081c.1-.017.174,1.119.227,1.156s.311-.088.44-.327.056-1,.159-1.066,2.352-.938,2.418-.913a4.194,4.194,0,0,1,.473,1.148c.076.361.207,2.328.24,2.4s.3-.094.408-.272Z" transform="translate(-103.711 0)" fill="#00367b" fill-rule="evenodd"/>
      <path id="path24" d="M281.551,304.8a2.3,2.3,0,0,1,.746-1.73,2.488,2.488,0,0,1,1.791-.715,2.571,2.571,0,0,1,1.817.689,2.281,2.281,0,0,1,.746,1.756,2.333,2.333,0,0,1-.746,1.756,2.519,2.519,0,0,1-1.817.715,2.488,2.488,0,0,1-1.791-.715A2.333,2.333,0,0,1,281.551,304.8Z" transform="translate(-69.62 -62.598)" fill="#f36f21" fill-rule="evenodd"/>
    </g>
  </g>
</svg>
