<svg xmlns="http://www.w3.org/2000/svg" xmlns:xlink="http://www.w3.org/1999/xlink" width="14" height="14" viewBox="0 0 14 14">
  <defs>
    <clipPath id="clip-_1">
      <rect width="14" height="14"/>
    </clipPath>
  </defs>
  <g id="_1" data-name="1" clip-path="url(#clip-_1)">
    <g id="noun_price_high_to_low_1861895" data-name="noun_price high to low_1861895" transform="translate(-5.25 -5)">
      <path id="Path_13140" data-name="Path 13140" d="M10.526,15.72a.75.75,0,0,1,0,1.061l-2,2a.749.749,0,0,1-1.06,0l-2-2a.75.75,0,1,1,1.06-1.061l.719.72V5.75a.749.749,0,1,1,1.5,0V16.439l.719-.72a.749.749,0,0,1,1.06,0Zm7.835-3.811a3.492,3.492,0,0,0-1.962-.791l-1.119-.166a1.952,1.952,0,0,1-.975-.4.917.917,0,0,1-.288-.725c0-.791.591-1.283,1.544-1.283a2.641,2.641,0,0,1,1.968.689.905.905,0,0,0,.65.269.919.919,0,0,0,.918-.919.906.906,0,0,0-.3-.676A4.142,4.142,0,0,0,16.24,6.8V5.75a.749.749,0,1,0-1.5,0V6.83a3,3,0,0,0-2.674,3.057,2.706,2.706,0,0,0,.8,2.06,3.619,3.619,0,0,0,2,.853l1.157.166a1.456,1.456,0,0,1,.94.349,1.112,1.112,0,0,1,.308.841c0,1.092-1.114,1.255-1.778,1.255a2.973,2.973,0,0,1-2.335-.866l-.175-.175-.017.017a.914.914,0,0,0-.507-.152.949.949,0,0,0-.948.948.921.921,0,0,0,.144.5l-.015.015.169.185a4.417,4.417,0,0,0,2.934,1.34V18.25a.749.749,0,1,0,1.5,0V17.187a3.1,3.1,0,0,0,3.006-3.073,2.817,2.817,0,0,0-.886-2.205Z" fill="#00367a"/>
    </g>
  </g>
</svg>
