<?xml version="1.0" ?><svg viewBox="0 0 512 512" xmlns="http://www.w3.org/2000/svg"><title/><g id="Bus"><path d="M379.24,29.9019H132.76A64.93,64.93,0,0,0,67.9019,94.76V398.5A17.0965,17.0965,0,0,0,85,415.5981H96.4019V431.75a50.3481,50.3481,0,0,0,100.6962,0V415.5981H314.9019V431.75a50.3481,50.3481,0,0,0,100.6962,0V415.5981H427A17.0965,17.0965,0,0,0,444.0981,398.5V94.76A64.93,64.93,0,0,0,379.24,29.9019ZM141.9988,370a28.5,28.5,0,1,1,28.5-28.5A28.5007,28.5007,0,0,1,141.9988,370Zm228,0a28.5,28.5,0,1,1,28.5-28.5A28.5007,28.5007,0,0,1,369.9988,370Zm39.9031-102.5981H102.0981V140.0981H409.9019Z"/></g></svg>