<svg xmlns="http://www.w3.org/2000/svg" xmlns:xlink="http://www.w3.org/1999/xlink" width="121" height="92" viewBox="0 0 121 92">
  <defs>
    <clipPath id="clip-Artboard_1">
      <rect width="121" height="92"/>
    </clipPath>
  </defs>
  <g id="Artboard_1" data-name="Artboard – 1" clip-path="url(#clip-Artboard_1)">
    <g id="Group_9345" data-name="Group 9345" transform="translate(-228 -1359)">
      <g id="noun_Image_777906" transform="translate(268 1371)">
        <g id="Layer_2" data-name="Layer 2">
          <g id="Layer_2-2" data-name="Layer 2">
            <path id="Path_13057" data-name="Path 13057" d="M36.783,32.75H3.223A3.223,3.223,0,0,1,0,29.527V3.223A3.223,3.223,0,0,1,3.223,0H36.783a3.223,3.223,0,0,1,3.223,3.223v26.3a3.223,3.223,0,0,1-3.223,3.223ZM3.223,2.513a.71.71,0,0,0-.71.71v26.3a.71.71,0,0,0,.71.71H36.783a.71.71,0,0,0,.7-.71V3.223a.71.71,0,0,0-.7-.71Z" fill="#888"/>
            <path id="Path_13058" data-name="Path 13058" d="M11.436,34.791H36.258a1.062,1.062,0,0,0,.886-1.69L33.72,28.452a1.062,1.062,0,0,0-1.6-.138L28.6,31.662,20.432,20.573a1.062,1.062,0,0,0-1.747.05L10.519,33.151a1.062,1.062,0,0,0,.917,1.64Z" transform="translate(-3.847 -7.487)" fill="#888"/>
            <circle id="Ellipse_565" data-name="Ellipse 565" cx="3.725" cy="3.725" r="3.725" transform="translate(23.999 5.774)" fill="#888"/>
          </g>
        </g>
      </g>
      <text id="No_Image_Available" data-name="No Image 
Available" transform="translate(289 1423)" fill="#888" font-size="12" font-family="Roboto-Medium, Roboto" font-weight="500"><tspan x="-29.807" y="0">NO IMAGE </tspan><tspan x="-30.835" y="14">AVAILABLE</tspan></text>
    </g>
  </g>
</svg>
