<svg xmlns="http://www.w3.org/2000/svg" xmlns:xlink="http://www.w3.org/1999/xlink" width="24" height="24" viewBox="0 0 24 24">
  <defs>
    <clipPath id="clip-Package">
      <rect width="24" height="24"/>
    </clipPath>
  </defs>
  <g id="Package" clip-path="url(#clip-Package)">
    <g id="noun_Package_3407343" transform="translate(-3.588 -1.6)">
      <g id="Group_9695" data-name="Group 9695" transform="translate(5.588 2.6)">
        <path id="Path_13107" data-name="Path 13107" d="M47.173,6.942a.871.871,0,0,0,.873-.873v-2.6a.873.873,0,0,0-1.746,0v2.6A.871.871,0,0,0,47.173,6.942Z" transform="translate(-36.693 -2.6)" fill="#475f7b"/>
        <path id="Path_13108" data-name="Path 13108" d="M62.94,12.662a.851.851,0,0,0,.472.142.878.878,0,0,0,.755-.425l1.369-2.195a.89.89,0,1,0-1.51-.944l-1.369,2.195A.883.883,0,0,0,62.94,12.662Z" transform="translate(-49.085 -7.352)" fill="#475f7b"/>
        <path id="Path_13109" data-name="Path 13109" d="M25.626,12.379a.9.9,0,0,0,.755.425.851.851,0,0,0,.472-.142.883.883,0,0,0,.283-1.227L25.767,9.24a.89.89,0,1,0-1.51.944Z" transform="translate(-19.747 -7.352)" fill="#475f7b"/>
        <path id="Path_13110" data-name="Path 13110" d="M20.685,69.007,15.8,67.1v3.776a.691.691,0,0,0,.448.637l7.079,2.407V66.6l-2.006,2.265A.588.588,0,0,1,20.685,69.007Z" transform="translate(-13.39 -51.497)" fill="#475f7b"/>
        <path id="Path_13111" data-name="Path 13111" d="M26.475,38.761l-2.431-3.068a.6.6,0,0,0-.354-.283l-7.41-2.525a.655.655,0,0,0-.425,0L8.446,35.41a.707.707,0,0,0-.354.283L5.662,38.761a.335.335,0,0,0,.142.519l6.914,2.714a.335.335,0,0,0,.378-.094l2.572-2.879a.57.57,0,0,1,.826,0L19.065,41.9a.367.367,0,0,0,.378.094l6.891-2.737A.31.31,0,0,0,26.475,38.761Zm-10.407-.92-5.357-1.817,5.357-1.817,5.357,1.817Z" transform="translate(-5.588 -25.712)" fill="#475f7b"/>
        <path id="Path_13112" data-name="Path 13112" d="M54.731,69.054a.591.591,0,0,1-.425-.189L52.3,66.6v7.292l7.079-2.407a.691.691,0,0,0,.448-.637V67.072l-4.885,1.911A.381.381,0,0,1,54.731,69.054Z" transform="translate(-41.277 -51.497)" fill="#475f7b"/>
      </g>
    </g>
  </g>
</svg>
