<svg xmlns="http://www.w3.org/2000/svg" xmlns:xlink="http://www.w3.org/1999/xlink" width="20" height="20" viewBox="0 0 20 20">
  <defs>
    <clipPath id="clip-Icons">
      <rect width="20" height="20"/>
    </clipPath>
  </defs>
  <g id="Icons" clip-path="url(#clip-Icons)">
    <g id="noun_in_process_3674578" data-name="noun_in process_3674578" transform="translate(-0.5 -0.492)">
      <g id="Group_3235" data-name="Group 3235" transform="translate(0.5 0.492)">
        <path id="Path_8584" data-name="Path 8584" d="M8.5,19.868A9.636,9.636,0,0,1,6.7,19l1.725-2.823a5.161,5.161,0,0,0,2.117.784,7.315,7.315,0,0,0,3.215-.157,5.721,5.721,0,0,0,2.274-1.176,7.828,7.828,0,0,0,1.647-1.96,7.2,7.2,0,0,0,.784-2.509,7.263,7.263,0,0,0-.235-2.588A5.721,5.721,0,0,0,17.051,6.3a6.654,6.654,0,0,0-1.96-1.647,6.113,6.113,0,0,0-3.215-.784V.5a10.3,10.3,0,0,1,4.783,1.255,9.26,9.26,0,0,1,2.98,2.509,10.759,10.759,0,0,1,1.8,3.372,9.422,9.422,0,0,1,.314,3.921,10.547,10.547,0,0,1-1.176,3.764,9.26,9.26,0,0,1-2.509,2.98,11.155,11.155,0,0,1-3.45,1.8,9.631,9.631,0,0,1-3.921.314A9.865,9.865,0,0,1,8.5,19.868Z" transform="translate(-1.838 -0.492)" fill="#00367a"/>
        <path id="Path_8585" data-name="Path 8585" d="M15.539,9.368a.294.294,0,0,0-.471,0L10.755,13.6a.294.294,0,0,1-.471,0L9.265,12.583a.294.294,0,0,0-.471,0l-.627.627a.294.294,0,0,0,0,.471l2.2,2.2a.294.294,0,0,0,.471,0l5.411-5.332a.294.294,0,0,0,0-.471Z" transform="translate(-2.129 -2.382)" fill="#f26f22"/>
        <path id="Path_8586" data-name="Path 8586" d="M1.527,17.766c-.078-.235-.235-.549-.314-.784a5.776,5.776,0,0,1-.314-1.1L4.115,15.1c.078.235.157.471.235.784a3.823,3.823,0,0,1,.235.549Z" transform="translate(-0.586 -3.645)" fill="#00367a"/>
        <path id="Path_8587" data-name="Path 8587" d="M4.333,21.65l-.392-.392A13.653,13.653,0,0,1,3,20.16L5.666,18.2a5.073,5.073,0,0,0,.627.706l.235.235Z" transform="translate(-1.04 -4.314)" fill="#00367a"/>
        <path id="Path_8588" data-name="Path 8588" d="M.5,13.06V11.727c0-.235.078-.392.078-.627l3.294.549a3.4,3.4,0,0,1-.078.392V12.9Z" transform="translate(-0.5 -2.782)" fill="#00367a"/>
        <path id="Path_8589" data-name="Path 8589" d="M4.537,9.28,1.4,8.1a6.252,6.252,0,0,1,.627-1.255A3.41,3.41,0,0,0,2.341,6.3L5.164,8.1a.42.42,0,0,0-.235.314A4.2,4.2,0,0,0,4.537,9.28Z" transform="translate(-0.694 -1.746)" fill="#00367a"/>
        <path id="Path_8590" data-name="Path 8590" d="M6.553,6.307,4.2,3.955a8.394,8.394,0,0,1,1.255-1.1c.078-.078.157-.157.235-.157L7.572,5.445l-.157.078A4.11,4.11,0,0,0,6.553,6.307Z" transform="translate(-1.299 -0.969)" fill="#00367a"/>
        <path id="Path_8591" data-name="Path 8591" d="M9.633,4.386,8.3,1.249A8.535,8.535,0,0,1,10.182.7l.392,1.647.314,1.647A3.359,3.359,0,0,0,9.633,4.386Z" transform="translate(-2.183 -0.537)" fill="#00367a"/>
      </g>
    </g>
  </g>
</svg>
