<svg xmlns="http://www.w3.org/2000/svg" xmlns:xlink="http://www.w3.org/1999/xlink" width="20" height="20" viewBox="0 0 20 20">
  <defs>
    <clipPath id="clip-Icons">
      <rect width="20" height="20"/>
    </clipPath>
  </defs>
  <g id="Icons" clip-path="url(#clip-Icons)">
    <g id="noun_Refund_2396685" transform="translate(-53.59 -25.988)">
      <g id="Group_3161" data-name="Group 3161" transform="translate(54.59 26.27)">
        <path id="Path_8519" data-name="Path 8519" d="M63.584,32.534a4.38,4.38,0,1,1-4.38,4.38A4.38,4.38,0,0,1,63.584,32.534Zm.359-4.665a8.887,8.887,0,1,1-8.934,10.785.821.821,0,0,1,1.6-.347,7.245,7.245,0,1,0,7.329-8.794v1.394a.659.659,0,0,1-1.026.545l-3.405-1.968a.655.655,0,0,1,.006-1.139l3.439-1.987a.657.657,0,0,1,.985.567v.943ZM55.5,34.989a1.041,1.041,0,1,1-.9,1.167A1.041,1.041,0,0,1,55.5,34.989Zm1.1-2.728a1.041,1.041,0,1,1-1.242.79A1.041,1.041,0,0,1,56.6,32.261Zm1.97-2.187a1.041,1.041,0,1,1-1.437.318A1.041,1.041,0,0,1,58.568,30.074Zm4.642,4.037h.746v.642a1.261,1.261,0,0,1,1.219,1.265l-.855.029a.64.64,0,0,0-.364-.547v.942c.732.189,1.343.468,1.343,1.354a1.236,1.236,0,0,1-.772,1.151,2,2,0,0,1-.571.137v.633h-.746v-.642a1.457,1.457,0,0,1-1.343-1.419l.832-.083a.881.881,0,0,0,.511.738V37.136c-.615-.176-1.184-.486-1.184-1.229,0-.72.565-1.065,1.184-1.156Zm.746,3.213v1.015a.568.568,0,0,0,.488-.537C64.445,37.549,64.217,37.411,63.957,37.324Zm-.746-1.084v-.763c-.2.053-.37.163-.37.374C62.841,36.038,63.01,36.159,63.211,36.24Z" transform="translate(-54.59 -26.27)" fill-rule="evenodd"/>
      </g>
    </g>
  </g>
</svg>
