<svg xmlns="http://www.w3.org/2000/svg" xmlns:xlink="http://www.w3.org/1999/xlink" width="20" height="20" viewBox="0 0 20 20">
  <defs>
    <clipPath id="clip-Icons">
      <rect width="20" height="20"/>
    </clipPath>
  </defs>
  <g id="Icons" clip-path="url(#clip-Icons)">
    <g id="Group_3236" data-name="Group 3236" transform="translate(-763.35 -305)">
      <g id="noun_searching_445043" transform="translate(763.35 305)">
        <path id="Path_8594" data-name="Path 8594" d="M21.878,19.632l-4.239-4.239-.294.294-.462-.462a8.058,8.058,0,1,0-1.658,1.658l.462.462-.294.294,4.239,4.239a1.588,1.588,0,0,0,2.246-2.246Zm-7.324-5.079a5.862,5.862,0,1,1,0-8.29A5.865,5.865,0,0,1,14.554,14.554Z" transform="translate(-2.35 -2.35)" fill="#00367a"/>
      </g>
      <g id="noun_searching_445043-2" data-name="noun_searching_445043" transform="translate(767.656 312.165)">
        <path id="Path_8594-2" data-name="Path 8594" d="M14.879,18.347h1.746v1.746H14.879Zm2.924,0h1.746v1.746H17.8Zm-5.827,0h1.746v1.746H11.976V18.347Z" transform="translate(-11.976 -18.347)" fill="#f26f22"/>
      </g>
    </g>
  </g>
</svg>
