<svg xmlns="http://www.w3.org/2000/svg" xmlns:xlink="http://www.w3.org/1999/xlink" width="150" height="80" viewBox="0 0 150 80">
  <defs>
    <clipPath id="clip-Airline-Logo">
      <rect width="150" height="80"/>
    </clipPath>
  </defs>
  <g id="Airline-Logo" clip-path="url(#clip-Airline-Logo)">
    <g id="Air_Canada-Logo.wine" transform="translate(15 32)">
      <path id="Path_8669" data-name="Path 8669" d="M8.265,11.14c0-.519.28-.6.759-.319.878.479,1.837,1,1.837,1,.04-.28.28-.519.8-.4.479.12,1.038.24,1.038.24s-.28-.679-.439-.958c-.24-.559,0-.8.24-.878,0,0-.319-.24-.559-.4-.479-.319-.359-.679.08-.878.639-.28,1.437-.639,1.437-.639a.689.689,0,0,1-.2-1.038c.319-.479.8-1.118.8-1.118H12.617a.641.641,0,0,1-.639-.719s-.839.6-1.437,1c-.519.359-.958,0-.878-.6.12-.918.24-1.957.24-1.957a.723.723,0,0,1-1.078-.319c-.4-.679-.839-1.6-.839-1.6s-.4.878-.759,1.637a.728.728,0,0,1-1.078.319s.12,1.038.24,1.957c.08.6-.4.918-.878.6-.6-.4-1.437-1-1.437-1a.641.641,0,0,1-.639.719H2s.479.679.8,1.118a.717.717,0,0,1-.2,1.038s.8.359,1.437.639c.479.2.6.519.08.878-.24.16-.559.4-.559.4.24.08.479.319.24.878-.12.28-.439.958-.439.958s.559-.12,1.038-.24c.519-.12.8.12.8.4,0,0,.918-.519,1.8-1,.479-.28.759-.16.759.319v1.2a3.8,3.8,0,0,1-.4,1.917A6.8,6.8,0,0,1,1.078,7.626,6.852,6.852,0,0,1,7.986.878a6.793,6.793,0,0,1,6.908,6.708,6.753,6.753,0,0,1-6.149,6.668v.918a7.759,7.759,0,0,0,7.227-7.586A7.753,7.753,0,0,0,7.986,0,7.811,7.811,0,0,0,0,7.626a7.684,7.684,0,0,0,6.468,7.467,2.051,2.051,0,0,1,1.358.6,7.975,7.975,0,0,0,.479-3.114V11.14Z" fill="#d82f2e"/>
      <path id="Path_8670" data-name="Path 8670" d="M74.748,16.625V8.479H78.7c2.116,0,3.075.878,3.114,2.036a1.885,1.885,0,0,1-.439,1.437,2.92,2.92,0,0,1-1.2.878l2.995,3.793H80.937L78.3,13.271H76.5v3.354Zm1.8-4.472h.8c2.2,0,2.635-.359,2.635-1.437,0-1.038-.958-1.2-2.4-1.2H76.5v2.635ZM56.9,16.625l3.554-8.145H62.61l3.514,8.145h-2.2l-.958-2.2H59.216l-.958,2.2Zm2.8-3.274H62.53l-1.4-3.234Zm8.984-4.871H70.6v8.145H68.679Zm28.19,7.866a9.252,9.252,0,0,1-3.354.519,5.625,5.625,0,0,1-3.753-1.158A3.917,3.917,0,0,1,88.4,12.512a3.864,3.864,0,0,1,1.358-3.194A5.893,5.893,0,0,1,93.634,8.2a16.991,16.991,0,0,1,3.194.319V9.837a11.428,11.428,0,0,0-3.114-.519,3.4,3.4,0,0,0-2.4.8,3.144,3.144,0,0,0-.839,2.356,2.872,2.872,0,0,0,.918,2.316,3.545,3.545,0,0,0,2.516.839,8.011,8.011,0,0,0,2.995-.6v1.318Zm2.316.28,3.554-8.145h2.156l3.514,8.145h-2.2l-.958-2.2H101.5l-.958,2.2Zm2.8-3.274h2.835l-1.4-3.234ZM122.7,16.625l3.554-8.145h2.156l3.514,8.145h-2.2l-.958-2.2h-3.753l-.958,2.2Zm2.8-3.274h2.835l-1.4-3.234Zm19.525,3.274,3.554-8.145h2.156l3.514,8.145h-2.2l-.958-2.2h-3.753l-.958,2.2Zm2.8-3.274h2.835l-1.4-3.234Zm-34.5-4.871,5.111,5.79V8.479h1.557v8.145h-2l-5.311-6.109v6.109h-1.557V8.479Zm21.322,8.145V8.479h3.953a4.891,4.891,0,0,1,3.234,1,3.646,3.646,0,0,1,1.118,2.875,3.974,3.974,0,0,1-1.2,3.114,4.668,4.668,0,0,1-3.354,1.118h-3.753Zm1.877-1.158h1.4a3.136,3.136,0,0,0,2.236-.719,3.262,3.262,0,0,0,.759-2.236,3.168,3.168,0,0,0-.6-1.957,2.451,2.451,0,0,0-.958-.759,5.785,5.785,0,0,0-1.677-.2h-1.158Z" transform="translate(-34.181 -4.926)"/>
    </g>
  </g>
</svg>
