<svg xmlns="http://www.w3.org/2000/svg" xmlns:xlink="http://www.w3.org/1999/xlink" width="150" height="80" viewBox="0 0 150 80">
  <defs>
    <clipPath id="clip-Airline-Logo">
      <rect width="150" height="80"/>
    </clipPath>
  </defs>
  <g id="Airline-Logo" clip-path="url(#clip-Airline-Logo)">
    <g id="IndiGo-Logo.wine" transform="translate(50 15)">
      <path id="Path_8657" data-name="Path 8657" d="M0,0H50.4V50.4H0Z" fill="#3a469d"/>
      <path id="Path_8658" data-name="Path 8658" d="M189.209,155.709l.064.861v.016H189.1c-.016,0-.016,0-.016-.016l-.032-.351-.112.367a.016.016,0,0,1-.016.016h-.112c-.016,0-.016,0-.016-.016l-.112-.367-.032.351v.016h-.159c-.016,0-.016,0-.016-.016l.064-.861c0-.016,0-.016.016-.016h.16c.016,0,.016,0,.016.016l.144.574.144-.574a.016.016,0,0,1,.016-.016h.16c.016,0,.016,0,.016.016Zm-1.515-.032h.686c.016,0,.016,0,.016.016v.159c0,.016,0,.016-.016.016h-.255v.7c0,.016,0,.016-.016.016h-.159c-.016,0-.016,0-.016-.016v-.7h-.271v-.175A.055.055,0,0,0,187.694,155.677Z" transform="translate(-140.402 -116.472)" fill="#fff"/>
      <g id="Group_3680" data-name="Group 3680" transform="translate(2.281 6.157)">
        <path id="Path_8659" data-name="Path 8659" d="M50.32,154.441a4.51,4.51,0,1,1,4.354-4.61A4.43,4.43,0,0,1,50.32,154.441Zm.16-7.5a2.986,2.986,0,0,0-.144,5.949,2.915,2.915,0,0,0,2.775-3.046A2.836,2.836,0,0,0,50.479,146.944Zm-11.8,7.656a6.4,6.4,0,0,1-6.013-6.38,6.364,6.364,0,0,1,11.229-4.338l-1.18,1.244c-1.8-1.755-3.142-1.882-3.844-1.85a4.643,4.643,0,0,0-4.466,4.9,4.792,4.792,0,0,0,4.386,4.8,4.335,4.335,0,0,0,4.45-4.051H38.979v-1.675h6.077C45.343,152.176,41.994,154.776,38.676,154.6Zm-29.619-.319V141.665h1.834v12.617Zm15.1.159a4.517,4.517,0,0,1,.08-9.012,4.011,4.011,0,0,1,1.5.335l.638.319v1.834l-.271-.3a3.472,3.472,0,0,0-1.978-.67,2.689,2.689,0,0,0-2.552,2.791,2.82,2.82,0,0,0,2.632,3.174,2.743,2.743,0,0,0,2.648-3.031v-8.214h1.659v8.262A4.355,4.355,0,0,1,24.162,154.441Zm-6.811-.159V149.7c0-2.536-1.244-2.584-1.9-2.648a2.056,2.056,0,0,0-2.026,2.233V154.3h-1.6v-4.913a3.691,3.691,0,0,1,3.669-3.924,3.674,3.674,0,0,1,3.509,3.844v4.976Zm12.234-10.687a.965.965,0,1,1,1.93.016A.965.965,0,1,1,29.585,143.595Zm.207,10.687v-8.741h1.675v8.741Z" transform="translate(-9.057 -112.109)" fill="#fff" stroke="#fff" stroke-miterlimit="10" stroke-width="0.633"/>
        <circle id="Ellipse_661" data-name="Ellipse 661" cx="0.718" cy="0.718" r="0.718" transform="translate(30.497 13.861)" fill="#fff"/>
        <circle id="Ellipse_662" data-name="Ellipse 662" cx="0.718" cy="0.718" r="0.718" transform="translate(30.497 11.947)" fill="#fff"/>
        <circle id="Ellipse_663" data-name="Ellipse 663" cx="0.718" cy="0.718" r="0.718" transform="translate(26.669 10.033)" fill="#fff"/>
        <circle id="Ellipse_664" data-name="Ellipse 664" cx="0.718" cy="0.718" r="0.718" transform="translate(28.583 10.033)" fill="#fff"/>
        <circle id="Ellipse_665" data-name="Ellipse 665" cx="0.718" cy="0.718" r="0.718" transform="translate(30.178 2.696)" fill="#fff"/>
        <circle id="Ellipse_666" data-name="Ellipse 666" cx="0.718" cy="0.718" r="0.718" transform="translate(32.092 2.696)" fill="#fff"/>
        <circle id="Ellipse_667" data-name="Ellipse 667" cx="0.718" cy="0.718" r="0.718" transform="translate(34.006 2.696)" fill="#fff"/>
        <circle id="Ellipse_668" data-name="Ellipse 668" cx="0.718" cy="0.718" r="0.718" transform="translate(35.92 2.696)" fill="#fff"/>
        <circle id="Ellipse_669" data-name="Ellipse 669" cx="0.718" cy="0.718" r="0.718" transform="translate(37.834 10.352)" fill="#fff"/>
        <circle id="Ellipse_670" data-name="Ellipse 670" cx="0.718" cy="0.718" r="0.718" transform="translate(37.834 8.39)" fill="#fff"/>
        <circle id="Ellipse_671" data-name="Ellipse 671" cx="0.718" cy="0.718" r="0.718" transform="translate(37.834 6.476)" fill="#fff"/>
        <circle id="Ellipse_672" data-name="Ellipse 672" cx="0.718" cy="0.718" r="0.718" transform="translate(37.834 4.562)" fill="#fff"/>
        <circle id="Ellipse_673" data-name="Ellipse 673" cx="0.718" cy="0.718" r="0.718" transform="translate(30.497 10.033)" fill="#fff"/>
        <circle id="Ellipse_674" data-name="Ellipse 674" cx="0.718" cy="0.718" r="0.718" transform="translate(31.932 8.613)" fill="#fff"/>
        <circle id="Ellipse_675" data-name="Ellipse 675" cx="0.718" cy="0.718" r="0.718" transform="translate(33.208 7.353)" fill="#fff"/>
        <circle id="Ellipse_676" data-name="Ellipse 676" cx="0.718" cy="0.718" r="0.718" transform="translate(34.644 5.917)" fill="#fff"/>
        <circle id="Ellipse_677" data-name="Ellipse 677" cx="0.718" cy="0.718" r="0.718" transform="translate(35.92 4.546)" fill="#fff"/>
        <circle id="Ellipse_678" data-name="Ellipse 678" cx="0.718" cy="0.718" r="0.718" transform="translate(37.834 2.696)" fill="#fff"/>
        <circle id="Ellipse_679" data-name="Ellipse 679" cx="0.718" cy="0.718" r="0.718" transform="translate(39.11 1.356)" fill="#fff"/>
        <circle id="Ellipse_680" data-name="Ellipse 680" cx="0.718" cy="0.718" r="0.718" transform="translate(40.545)" fill="#fff"/>
      </g>
    </g>
  </g>
</svg>
