<svg xmlns="http://www.w3.org/2000/svg" xmlns:xlink="http://www.w3.org/1999/xlink" width="150" height="80" viewBox="0 0 150 80">
  <defs>
    <clipPath id="clip-Airline-Logo">
      <rect width="150" height="80"/>
    </clipPath>
  </defs>
  <g id="Airline-Logo" clip-path="url(#clip-Airline-Logo)">
    <g id="Group_3681" data-name="Group 3681" transform="translate(-16857.119 4609.232)">
      <g id="Oman_Air-Logo.wine" transform="translate(16872.119 -4584.232)">
        <path id="Path_8660" data-name="Path 8660" d="M287.639,18.417c0,7.681,7.736,8.709,7.736,19.41,0,0,7.74.25,7.74-5.139,0-5.562-16.173-15-12.849-20.8a10.725,10.725,0,0,0-2.628,6.529" transform="translate(-201.274 -8.319)" fill="#a7a9ac"/>
        <path id="Path_8661" data-name="Path 8661" d="M296.583,3.882c-3.45,6.1,12.834,15.783,12.834,20.92,0,1.765-.182,2.988-1.465,3.75,0,0,6.167-2.823,7.034-6.621v-1.9C313.8,13.942,302.5,9.237,302.388,4.487a3.532,3.532,0,0,1,2.521-3.4q-.557-.038-1.117-.038c-5.416,0-7.21,2.83-7.21,2.83" transform="translate(-207.196 -0.736)" fill="#a7a9ac"/>
        <path id="Path_8662" data-name="Path 8662" d="M333.992,2.058c-4.05,0-11.487-1.59-12.881-1.574-2.783.035-4.277,3.43-1.906,6.017a7.094,7.094,0,0,1,2.332-1.722c1.584-.544,3.42-.41,5.7-.276a36,36,0,0,0,8.841-.351c4.371-.767,5.84-2.471,6.556-4.152-1.753,1.452-4.6,2.058-8.646,2.058" transform="translate(-222.536)" fill="#b5985a"/>
        <path id="Path_8663" data-name="Path 8663" d="M339.451,10.915a35.934,35.934,0,0,1-8.841.351c-2.286-.134-4.122-.267-5.706.277a7.028,7.028,0,0,0-2.3,1.63,42.36,42.36,0,0,0,4.623,4.209c1.115-3.584,8.175-2.173,11.061-3.2,3.637-1.3,5.164-3.483,5.741-4.929l-.017-.007a11.167,11.167,0,0,1-4.565,1.673" transform="translate(-225.743 -6.467)" fill="#b5985a"/>
        <path id="Path_8664" data-name="Path 8664" d="M349.811,21.661c-3.108,1-7.406.237-9.756,1.614a2.9,2.9,0,0,0-1.257,1.566,38.6,38.6,0,0,1,4.25,4.106,3.082,3.082,0,0,1,.9-2.136c1.263-1.263,8.143-2.139,9.426-7.218a9.339,9.339,0,0,1-3.562,2.068" transform="translate(-237.071 -13.71)" fill="#b5985a"/>
        <path id="Path_8668" data-name="Path 8668" d="M.186,75.173l.75-2.388c.816-2.6,3.075-3.1,6.039-3.1s4.914.5,4.1,3.1l-.75,2.388c-.816,2.6-3.073,3.1-6.041,3.1s-4.907-.5-4.094-3.1m7.2-.248.6-1.9c.391-1.251-.109-1.373-1.627-1.373s-2.054.122-2.492,1.373l-.6,1.9c-.352,1.262.1,1.388,1.625,1.388s2.1-.126,2.492-1.388m6.275,3.281H10.742l2.652-8.452h4.63l.423,5.307h.1L22.2,69.754h4.743l-2.65,8.453H21.375L23.7,71.725h-.1l-4.809,6.481H16.263l-.771-6.481H15.4Zm15.529-1.454-1,1.454H25.159L31.1,69.754h4.436l.679,8.453H33.236l-.113-1.454Zm3.652-5.309h-.028l-2.479,3.662h2.716ZM39.9,78.206H36.979l2.652-8.452h4.935l1.1,6.49h.117l1.862-6.49h2.919l-2.65,8.453H42.935l-1.059-6.492h-.115Zm17.579-1.454-1,1.454H53.441l5.939-8.452h4.438l.679,8.453H61.518L61.4,76.752Zm3.65-5.309H61.1L58.62,75.105h2.716Zm7.019,6.763H65.225l2.652-8.452H70.8Zm4.391-8.453h5.638c2.516.034,3.624.453,2.962,2.558-.44,1.407-.7,2.232-2.889,2.6l-.028.092c1.187.032,1.8.538,1.5,1.5l-.532,1.7H76.265l.372-1.183c.226-.63.011-1.059-.865-1.059H73.508l-.7,2.242H69.882ZM76.387,74c1.256,0,1.328-.359,1.625-1.318.237-.756.058-.97-.905-.97H74.841L74.124,74Z" transform="translate(0 -48.761)" fill="#a7a9ac"/>
        <g id="Group_3681-2" data-name="Group 3681" transform="translate(0 6.584)">
          <path id="Path_8665" data-name="Path 8665" d="M910.37-5050.352l3.074-8.1h-1.852l-3.078,8.1Zm-27.421,0,3.078-8.1h-1.852l-3.078,8.1Zm-13.462,0,3.078-8.1H870.71l-3.076,8.1Zm39.083-8.1-2.377,6.315H904.73l.254-.679c.292-.778-.1-1.409-.881-1.409h-5.154a1.913,1.913,0,0,0-.951.282l1.693-4.509h-1.848l-2.375,6.315h-1.214l.818-2.173H893.22l-.816,2.173H887.86l.566-1.508H886.3l-1.3,3.455-1.756,0a1.433,1.433,0,0,0,.165,1.309,1.605,1.605,0,0,0,1.31.481,2.439,2.439,0,0,0,1.5-.462,2.65,2.65,0,0,0,.905-1.326l.063-.165H907.4v-.054l3.02-8.043Zm-5.733,6.424H897.27c.133-.351.317-.637.665-.637h4.505a.427.427,0,0,1,.4.637m-27,.075a2.8,2.8,0,0,0-1.861,1.762,1.428,1.428,0,0,0,.167,1.309,2.625,2.625,0,0,0,1.675.681,5.532,5.532,0,0,0,2.878-.661,2.892,2.892,0,0,0,1.191-1.327l.065-.165.671-1.782.566-1.508h-2.129l-1.236,3.29h-2.588Zm-6.258-6.5h-1.853l-2.4,6.315h-4.374l.079-.2a.914.914,0,0,1,.784-.573h2.2l.679-1.788c-.375,0-.4.2-.784.2H860.64a1.265,1.265,0,0,0-1.06.7l-.627,1.663h-2.282a1.425,1.425,0,0,0-1.588-1.429,3.663,3.663,0,0,0-2.707,1.429h-2.61l2.4-6.315h-1.852l-3.078,8.1h4.556a1.439,1.439,0,0,0,1.57,1.179,3.622,3.622,0,0,0,2.5-1.179h10.649Zm-14.725,7.043a1.044,1.044,0,0,1-.895.621.417.417,0,0,1-.4-.621,1.04,1.04,0,0,1,.891-.623.42.42,0,0,1,.407.623m-9.107-2.277-.683,1.691h-3l-.167.173.339-.905h.008l.933-2.451c-.177.036-.72.673-1.5.673h-3.272a1.274,1.274,0,0,0-1.062.7l-.06.157-.323.863-.468,1.246-.443,1.18h-2.59l.6-1.6a2.783,2.783,0,0,0-1.86,1.761,1.42,1.42,0,0,0,.165,1.309,2.627,2.627,0,0,0,1.675.681,5.557,5.557,0,0,0,2.88-.659,2.935,2.935,0,0,0,1.193-1.329l.062-.165.669-1.782.222-.589h1.318l-.9,2.371h1.857l.018-.053h4.326a.771.771,0,0,0,.405-.127.653.653,0,0,0,.28-.323l1.062-2.828Zm.352-1.495a.735.735,0,0,0,.744.871,1.042,1.042,0,0,0,1-.871.735.735,0,0,0-.742-.871,1.05,1.05,0,0,0-1,.871m-11.77,8.075a.651.651,0,0,0,.661.776.931.931,0,0,0,.889-.776.655.655,0,0,0-.661-.774.93.93,0,0,0-.889.774m-2.03,0a.652.652,0,0,0,.659.776.93.93,0,0,0,.891-.776.655.655,0,0,0-.663-.774.931.931,0,0,0-.887.774" transform="translate(-832.119 5058.449)" fill="#b5985a"/>
          <path id="Path_8666" data-name="Path 8666" d="M953.133-5045.172a.652.652,0,0,0,.659.776.928.928,0,0,0,.889-.776.651.651,0,0,0-.659-.774.93.93,0,0,0-.889.774m-2.032,0a.658.658,0,0,0,.663.776.931.931,0,0,0,.889-.776.653.653,0,0,0-.661-.774.933.933,0,0,0-.891.774m-13.051-5.1a.734.734,0,0,0,.742.871,1.047,1.047,0,0,0,1-.871.735.735,0,0,0-.742-.868,1.047,1.047,0,0,0-1,.868m-15.589-2.937a1.042,1.042,0,0,0-1,.869.943.943,0,0,0-.008.2v0c0,.146-.986.194-.986.194l-.248.705s1.226-.115,2.06-.232a1.055,1.055,0,0,0,.107-.016h0a1.048,1.048,0,0,0,.81-.851.731.731,0,0,0-.74-.869m.137.878a.355.355,0,0,1-.341.3.252.252,0,0,1-.254-.3.361.361,0,0,1,.343-.3.25.25,0,0,1,.252.3" transform="translate(-893.768 5054.781)" fill="#b5985a"/>
        </g>
      </g>
    </g>
  </g>
</svg>
