<svg xmlns="http://www.w3.org/2000/svg" xmlns:xlink="http://www.w3.org/1999/xlink" width="150" height="80" viewBox="0 0 150 80">
  <defs>
    <clipPath id="clip-Airline-Logo">
      <rect width="150" height="80"/>
    </clipPath>
  </defs>
  <g id="Airline-Logo" clip-path="url(#clip-Airline-Logo)">
    <g id="qatar-airways-vector-logo" transform="translate(-26.5 -231.607)">
      <path id="Path_8629" data-name="Path 8629" d="M138.382,391.922h-1.641l.88-2.021Zm1,2.261h1.241c-.38-.76-.88-2.021-1.261-2.761-.26-.76-.76-1.881-1.141-3.021h-.52c-.26.62-.62,1.761-1.5,3.642l-1,2.141h.76a15.794,15.794,0,0,1,.62-1.761h2l.38.88Z" transform="translate(-74.951 -107.021)" fill="#525a68"/>
      <path id="Path_8630" data-name="Path 8630" d="M165.02,390.881a36.155,36.155,0,0,1-.12,3.782h1.241a16.752,16.752,0,0,1-.12-2.761,21.586,21.586,0,0,1,.12-2.9H164.9a11.359,11.359,0,0,1,.12,1.881" transform="translate(-98.708 -107.501)" fill="#525a68"/>
      <path id="Path_8631" data-name="Path 8631" d="M180.141,392.461a1.491,1.491,0,0,0,1.381-1.5,1.124,1.124,0,0,0-.38-.88,1.524,1.524,0,0,0-1.261-.38H177.62v2.261a32.208,32.208,0,0,1-.12,3.4h1.121v-2.641h.26a18.1,18.1,0,0,1,1.381,2.021,2.388,2.388,0,0,0,.38.62h1.381c-.5-.62-.76-1-1.381-1.881-.12-.12-.26-.5-.38-.62Zm-1.381-2.521h.62a.916.916,0,0,1,.76.26,1.124,1.124,0,0,1,.38.88,1.062,1.062,0,0,1-1.141,1.141h-.62Z" transform="translate(-108.787 -108.061)" fill="#525a68"/>
      <path id="Path_8632" data-name="Path 8632" d="M202.481,392.7c-.38-1.141-.88-2.761-1.141-3.782H200.1c.38.88.62,1.641.88,2.261.38,1.141.62,1.761.88,2.761l.26.62h.64c.12-.38.26-1,.38-1.261.38-1,.38-1.141.76-2.261l.26-.62a8.908,8.908,0,0,1,.38,1c.12.26.5,1.5.62,1.761a14.825,14.825,0,0,0,.5,1.5h.76c.38-1,.38-1.141.76-2.381.5-1.261.76-2.021,1.261-3.262h-.76c-.26,1.141-.5,1.641-.62,2.261-.38,1.141-.38,1.261-.62,1.881-.26-.76-.5-1.381-.76-2.141a10.675,10.675,0,0,1-.88-2.141h-.76c-.26,1-1.141,3.4-1.261,3.642l-.12.5Z" transform="translate(-126.865 -107.421)" fill="#525a68"/>
      <path id="Path_8633" data-name="Path 8633" d="M240.882,391.922h-1.641l.88-2.021Zm1,2.261h1.241c-.38-.76-.88-2.021-1.261-2.761-.26-.76-.76-1.881-1.141-3.021h-.52c-.26.62-.62,1.761-1.5,3.642l-1,2.141h.76a15.793,15.793,0,0,1,.62-1.761h2l.38.88Z" transform="translate(-156.942 -107.021)" fill="#525a68"/>
      <path id="Path_8634" data-name="Path 8634" d="M263.6,392.4c0-.12,0-.12.12-.26.38-.62.62-1.261,1-1.761.12-.26.76-1.141.88-1.381h-.88c-.62,1.261-.76,1.641-1.381,2.761-.76-1.261-1-1.881-1.5-2.761H260.6c.38.76,1.141,1.881,1.5,2.641l.5.88v2.261h1.121V392.4Z" transform="translate(-175.259 -107.501)" fill="#525a68"/>
      <path id="Path_8635" data-name="Path 8635" d="M287.06,392.922a1.169,1.169,0,0,1-.26.88,3.847,3.847,0,0,0,1.5.38,1.913,1.913,0,0,0,2.141-1.761,1.524,1.524,0,0,0-.38-1.141,2.762,2.762,0,0,0-1.141-.62c-.76-.26-1.141-.5-1.141-1a.9.9,0,0,1,1-.88,1.132,1.132,0,0,1,1.141.76h.12c.12-.38.12-.38.26-.76a3.8,3.8,0,0,0-1.381-.38c-1.5,0-1.881.88-1.881,1.641a1.561,1.561,0,0,0,1,1.5c.26.12.62.26.88.38a1.077,1.077,0,0,1,.62,1c0,.62-.38,1-1.141,1-.46,0-.82-.12-1.341-1Z" transform="translate(-196.217 -107.021)" fill="#525a68"/>
      <path id="Path_8636" data-name="Path 8636" d="M44.8,297.024c0-6.283,3.4-7.924,5.923-7.924,4.022,0,5.783,3.4,5.783,7.043a10.1,10.1,0,0,1-1.261,5.543,5.63,5.63,0,0,1-4.522,2.521c-4.542-.02-5.923-4.422-5.923-7.183M57.247,309.85a18.282,18.282,0,0,1,2.761-1.5l-5.663-3.522a8.632,8.632,0,0,0,5.663-8.564c0-5.923-4.522-8.564-9.184-8.564-5.042,0-9.3,2.761-9.3,9.064a8.272,8.272,0,0,0,2.261,6.163,9.326,9.326,0,0,0,6.923,2.521h.88Z" transform="translate(0 -26.471)" fill="#5c0d34"/>
      <path id="Path_8637" data-name="Path 8637" d="M153.185,298.725c-.76,0-1.5.12-2.261.12-.88,0-1.761-.12-2.641-.12l2.521-6.163Zm2.781,6.9c.5,0,1.141-.12,1.881-.12s1.5.12,1.881.12c-1.141-2.381-2.761-6.163-3.642-8.3s-2.381-5.543-3.522-8.924a1.687,1.687,0,0,1-.76.12,2.548,2.548,0,0,1-.88-.12c-.62,2.021-2.021,5.282-4.522,10.945l-2.9,6.423c.38,0,.76-.12,1.141-.12s.88.12,1.141.12a37.606,37.606,0,0,1,2.021-5.4c1,0,2.021-.12,3.021-.12a27.483,27.483,0,0,1,3.141.12l1,2.641Z" transform="translate(-81.59 -27.031)" fill="#5c0d34"/>
      <path id="Path_8638" data-name="Path 8638" d="M227.9,293.622v-2.761c1.761,0,3.522,0,4.9.12a2.548,2.548,0,0,1-.12-.88,3.622,3.622,0,0,1,.12-1,58.134,58.134,0,0,1-6.543.26c-1.881,0-4.662,0-6.663-.12a3.288,3.288,0,0,1,0,1.761c1.261-.12,3.642-.12,3.9-.12h1.261v9.685c0,1.881-.12,3.782-.26,5.663a10.276,10.276,0,0,1,1.641-.12c.26,0,1.141.12,1.761.12V293.622Z" transform="translate(-142.463 -27.591)" fill="#5c0d34"/>
      <path id="Path_8639" data-name="Path 8639" d="M291.5,298.725c-.76,0-1.5.12-2.261.12-.88,0-1.761-.12-2.641-.12l2.521-6.163Zm2.761,6.9c.5,0,1.141-.12,1.881-.12s1.5.12,1.881.12c-1.141-2.381-2.761-6.163-3.642-8.3s-2.381-5.543-3.522-8.924a1.687,1.687,0,0,1-.76.12,2.548,2.548,0,0,1-.88-.12c-.62,2.021-2.021,5.282-4.522,10.945l-2.9,6.423c.38,0,.76-.12,1.141-.12s.88.12,1.141.12a37.61,37.61,0,0,1,2.021-5.4c1,0,2.021-.12,3.021-.12a27.484,27.484,0,0,1,3.141.12l1,2.641Z" transform="translate(-192.217 -27.031)" fill="#5c0d34"/>
      <path id="Path_8640" data-name="Path 8640" d="M382.984,297.684c2.261-.38,4.282-1.881,4.282-4.662a3.859,3.859,0,0,0-1.141-2.761,5.08,5.08,0,0,0-3.9-1.261c-.62,0-3.4.12-4.162.12-1.261,0-1.881-.12-2.521-.12.12,3.141.12,3.522.12,6.8,0,4.782,0,5.282-.26,10.185a8.121,8.121,0,0,1,1.761-.12c.62,0,1.141.12,1.641.12,0-.62-.12-3.9-.12-4.522v-3.4h.62c1.381,1.881,2.9,4.022,4.162,6.043.38.62.88,1.5,1.261,2.021a10.037,10.037,0,0,1,2.021-.12c.88,0,1.5.12,2.261.12-1.5-2.021-2.261-2.9-4.162-5.543-.38-.5-.88-1.381-1.261-1.881Zm-4.162-7.3c.38,0,1.261-.12,1.761-.12a3.423,3.423,0,0,1,2.261.62,2.823,2.823,0,0,1,1,2.641,3.157,3.157,0,0,1-3.4,3.4,8.121,8.121,0,0,1-1.761-.12v-6.423Z" transform="translate(-267.089 -27.511)" fill="#5c0d34"/>
      <path id="Path_8641" data-name="Path 8641" d="M572.163,330.4a36.047,36.047,0,0,1-5.4.38,7.1,7.1,0,0,1-1.261-.88c3.762.24,6.663.38,6.663.5" transform="translate(-419.151 -60.227)" fill="#757f8b"/>
      <path id="Path_8642" data-name="Path 8642" d="M569.422,304.44a25.214,25.214,0,0,1-4.522.38,3.714,3.714,0,0,1,1.261-.62,16.6,16.6,0,0,1,3.261.24" transform="translate(-418.671 -39.669)" fill="#757f8b"/>
      <path id="Path_8643" data-name="Path 8643" d="M465.2,356.761h-3.141c-1.261,0-2.261-.38-2.261-.88s1-.88,2.261-.88h4.282c-.76,1.141-1,1.641-1.141,1.761h0" transform="translate(-334.601 -80.305)" fill="#757f8b"/>
      <path id="Path_8644" data-name="Path 8644" d="M468.4,369.5a7.484,7.484,0,0,0,1.381,1.381s.26.26.76,0A4.269,4.269,0,0,0,472.3,369.5c1.761,0,3.522.12,5.282.12a9.082,9.082,0,0,1,.76,1.261c-5.042.12-10.445.26-13.206.26-1.141,0-2.141-.38-2.141-.76,0-.5.88-.76,2.141-.76a27.339,27.339,0,0,1,3.262-.12h0" transform="translate(-337.16 -91.903)" fill="#757f8b"/>
      <path id="Path_8645" data-name="Path 8645" d="M473.081,384.221c-1,0-1.881-.38-1.881-.76s.88-.76,1.881-.76c2.761,0,8.3.12,13.086.26a3.894,3.894,0,0,1,.62,1c-4.9.26-10.825.26-13.706.26" transform="translate(-343.72 -102.462)" fill="#757f8b"/>
      <path id="Path_8646" data-name="Path 8646" d="M499.007,398.64c-4.022.12-10.945.26-13.706.26-.76,0-1.5-.26-1.5-.5s.62-.5,1.5-.5c2.761,0,9.184.12,13.206.26.12.1.24.34.5.48" transform="translate(-353.799 -114.621)" fill="#757f8b"/>
      <path id="Path_8647" data-name="Path 8647" d="M504.08,409.1c2.381,0,9.564.12,9.564.38s-7.163.38-9.564.38c-.5,0-.88-.12-.88-.38,0-.12.38-.38.88-.38" transform="translate(-369.317 -123.58)" fill="#757f8b"/>
      <path id="Path_8648" data-name="Path 8648" d="M469.364,330.241c-3.021,0-5.663.12-7.3.12-1.261,0-2.261-.38-2.261-.88s1-.88,2.261-.88c2.021,0,5.282,0,8.8.12a9.689,9.689,0,0,0-1.5,1.521" transform="translate(-334.601 -59.187)" fill="#757f8b"/>
      <path id="Path_8649" data-name="Path 8649" d="M578.5,317.3c1.761.12,2.9.26,2.9.26a14.091,14.091,0,0,1-3.4.38c.38-.26.5-.52.5-.64" transform="translate(-429.15 -50.148)" fill="#757f8b"/>
      <path id="Path_8650" data-name="Path 8650" d="M465.741,316.921c-1.141,0-2.141-.38-2.141-.76,0-.5.88-.76,2.141-.76,2.381,0,6.663,0,10.945.12-.5.5-1,.88-1.5,1.381-3.782.02-7.3.02-9.444.02" transform="translate(-337.64 -48.628)" fill="#757f8b"/>
      <path id="Path_8651" data-name="Path 8651" d="M484.686,302.9c-4.4.12-9.184.12-11.705.12-1,0-1.881-.38-1.881-.76s.88-.76,1.881-.76c2.761,0,8.3.12,13.086.26-.26.12-.5.38-.76.5a4.56,4.56,0,0,0-.62.64" transform="translate(-343.64 -37.51)" fill="#757f8b"/>
      <path id="Path_8652" data-name="Path 8652" d="M484.6,290.514c-.76,0-1.5-.26-1.5-.5s.62-.5,1.5-.5c3.141-.12,10.685,0,14.467.26-.26.12-.5.38-.76.5-3.882.1-10.805.24-13.706.24" transform="translate(-353.239 -27.884)" fill="#757f8b"/>
      <path id="Path_8653" data-name="Path 8653" d="M460.861,343.561c-1.261,0-2.261-.38-2.261-.88s1-.88,2.261-.88c1.5,0,3.9,0,6.543.12-.5.62-.88,1.141-1.261,1.641h-5.282" transform="translate(-333.641 -69.746)" fill="#757f8b"/>
      <path id="Path_8654" data-name="Path 8654" d="M503.2,279.98c0-.26.38-.38.88-.38,2.381,0,9.564.12,9.564.38s-7.163.38-9.564.38c-.5,0-.88-.26-.88-.38" transform="translate(-369.317 -19.992)" fill="#757f8b"/>
      <path id="Path_8655" data-name="Path 8655" d="M508.772,272.314v1.261c-4.162.12-8.184.38-8.184.76,0,.26,3.9.5,8.044.76-.12.5-.12,1-.26,1.381-4.022.12-7.8.38-7.8.62s3.522.5,7.423.62a7.94,7.94,0,0,1-.62,1.5c-3.4.12-6.163.38-6.163.62,0,.26,2.381.38,5.543.62-.12.26-.38.5-.5.76a4.52,4.52,0,0,0-.62.88c-1.881.12-3.262.26-3.262.5a6.519,6.519,0,0,0,2.381.38,16.849,16.849,0,0,1-2.761,2.141s-1.261-1.141-2.381-2.381a55.217,55.217,0,0,1-3.4-4.9c-.5-.62-.76-.88-1.381-.62a7.724,7.724,0,0,1-1.881.38c-.24,0-.38-.12,0-.26a5.3,5.3,0,0,0,3.021-2.761c1-1.881.12-4.662.12-4.662a4.222,4.222,0,0,1-1.141,2.021,4.328,4.328,0,0,0-.62-3.4l-.5,1.5s-.26,0-.76.5a3.9,3.9,0,0,0-.76,1.141,1.368,1.368,0,0,0,1-.26,19.906,19.906,0,0,1-2.381,5.783,3.644,3.644,0,0,1-2.021,1.761c-.62.26-.76,0-.76,0l-1.381-1.381h.12c.26,0,.88-.5.88-.76.12-.26.12-.38,0-.38s-.12.12-.76.5a.62.62,0,0,1-1-.12c-.12-.12,0-.38.12-.5s3.021-5.663,10.945-11.585c10.325-7.684,16.988-9.685,17.368-9.945.26-.12.62-.26.76-.12a.482.482,0,0,1,.12.38c0,.12-.12.12-.5.38a74.221,74.221,0,0,0-11.205,6.423c-3.262,1.641-6.283,3.9-6.423,3.9-.26.12-.12.38.12.26a68.653,68.653,0,0,1,19.009-8.184c.38-.12.5-.12.62,0s.12.12.12.26-.12.26-.38.26c-7.684,2.9-13.206,5.4-16.868,7.924,0,0-.38.26-.38.5,0,.12.26.12.26.12,1.761,0,4.282.12,5.4.26,0,0-.12.62-1.261,1a5.324,5.324,0,0,1-2.381.26c-.12,0-.38.12-.12.38-.22.24,1.4,2.9,7.444,3.522" transform="translate(-355.52)" fill="#5c0d34"/>
      <path id="Path_8656" data-name="Path 8656" d="M316,393.782h-1s-.12-.62.26-.88a3.239,3.239,0,0,1,.76-.38v1.261Zm4.782-2.4a6.53,6.53,0,0,0-1,.76c-.38.38.12.5.12.5v1.141h-3.021V389.62a8.755,8.755,0,0,0-1.141,1.141c-.12.12.26.26.26.26v.38s-.38.26-1,.62c-.5.38-.88.76-.88,1.141,0,.26-.12,1.5-.12,1.5h6.923V391.4h-.14Zm-6.163-1.5c.38,0,.62-.12.62-.38s-.12-.5-.62-.5c-.38,0-.5.12-.5.5.12.26.24.38.5.38m1.261,0c.38,0,.62-.12.62-.38s-.12-.5-.62-.5c-.38,0-.5.12-.5.5.12.26.24.38.5.38m2,5.162c-.38,0-.5.12-.5.5,0,.26.12.38.5.38s.62-.12.62-.38c-.12-.38-.24-.5-.62-.5m1.261,0c-.38,0-.5.12-.5.5,0,.26.12.38.5.38s.62-.12.62-.38c0-.38-.24-.5-.62-.5m14.847-5.162c.38,0,.62-.12.62-.38s-.12-.5-.62-.5c-.38,0-.5.12-.5.5,0,.26.12.38.5.38m1.261,0c.38,0,.62-.12.62-.38s-.12-.5-.62-.5c-.38,0-.5.12-.5.5,0,.26.12.38.5.38m3.642.12c-.12.12-.12.38.12.38v4.4h1v-5.4c.02-.12-.98.38-1.121.62m-3.9,2.4h-.62c0-.38.62-.5.62-.5Zm-4.142.76v.62h-5.543v-1c.12-.38.38-.38.76-.38h4.022c.88,0,.76.5.76.76m6.4-2.9v3.522H336.01v-3.141s-.26.12-.62.26c-.38.12-1.641.76-1.641,1.381v.88h1.381v.62h-3.141v-.76a1.672,1.672,0,0,0-1.641-1.641h-3.642c-.62,0-1,.12-1.141.38V389.12a6.531,6.531,0,0,0-1,.76c-.38.38,0,.5,0,.5v3.4H323.3v-2.9s-.88.62-1.141.76c-.26.12-.12.38.12.38v2.641a.9.9,0,0,1-1.261.88s-.26,0,0,.26a1.124,1.124,0,0,0,.88.38,1.482,1.482,0,0,0,1.5-1.5h15.227v-5.4s-.88.62-1.141.76c-.48.1-.48.22-.24.22" transform="translate(-217.974 -107.501)" fill="#5c0d34"/>
    </g>
  </g>
</svg>
