<svg id="a26c3a2a-15e1-4385-8474-be44a662864e" data-name="Layer 1" xmlns="http://www.w3.org/2000/svg" viewBox="0 0 75 75"><title>domain</title><rect width="75" height="75" style="fill:#fff;opacity:0"/><path d="M30.38,56.17l3.81,11.22,1.92-6.66-.94-1a1.58,1.58,0,0,1-.28-1.63c.51-1,1.56-.82,2.55-.82s2.3-.19,2.62,1.1a1.67,1.67,0,0,1-.32,1.35l-1,1,1.92,6.66,3.46-11.22c2.49,2.24,9.86,2.69,12.61,4.22a7.36,7.36,0,0,1,2.28,1.93c1.71,2.26,1.84,2.41,2.28,5.22A2.53,2.53,0,0,1,58.7,70H15.85a2.52,2.52,0,0,1-2.64-2.46c.44-2.81.57-3,2.28-5.22a7,7,0,0,1,2.28-1.93c2.74-1.53,10.12-2,12.61-4.22ZM28.65,40a2.11,2.11,0,0,0-1.07.28.81.81,0,0,0-.31.36,1.12,1.12,0,0,0-.1.57,5.11,5.11,0,0,0,1,2.47v0h0l2.13,3.39a18.36,18.36,0,0,0,2.86,3.76,5.83,5.83,0,0,0,4.09,1.64,6,6,0,0,0,4.32-1.72,19,19,0,0,0,2.95-4l2.4-4a3.93,3.93,0,0,0,.51-2.1c-.07-.24-.33-.36-.77-.38h-.29l-.34,0a.58.58,0,0,1-.19,0,3,3,0,0,1-.66,0L46,36.64a18.68,18.68,0,0,1-10.94-3.09c-1.17-.74-1.52-1.6-2.69-1.52a4,4,0,0,0-2.21,1.2,5.73,5.73,0,0,0-1.27,2.5L29.38,40a3,3,0,0,1-.73,0Zm18.86-.76a1.54,1.54,0,0,1,1.12,1.16,4.87,4.87,0,0,1-.58,2.91h0l0,.07-2.43,4a19.65,19.65,0,0,1-3.15,4.28,7.25,7.25,0,0,1-5.15,2,7,7,0,0,1-4.9-2,19.21,19.21,0,0,1-3.07-4l-2.13-3.39A6.21,6.21,0,0,1,26,41.23a2.5,2.5,0,0,1,.21-1.11,2.06,2.06,0,0,1,.73-.85,2.44,2.44,0,0,1,.51-.26,55.79,55.79,0,0,1-.1-6.09,8.38,8.38,0,0,1,.26-1.38A8.12,8.12,0,0,1,31.19,27,9.45,9.45,0,0,1,33.13,26c4.09-1.49,9.52-.67,12.42,2.47a8.24,8.24,0,0,1,2.09,5.22l-.13,5.55Z" style="fill-rule:evenodd"/><path d="M17.62,56.17a2.2,2.2,0,0,0-.17-.25c-.27-.44-.54-.86-.82-1.35s-.55-1-.8-1.5-.48-1-.69-1.55-.37-1-.58-1.62a2.18,2.18,0,0,0-2.1-1.45H6.52a1.32,1.32,0,0,1-.55-.1,1.46,1.46,0,0,1-.41-.29,1.67,1.67,0,0,1-.3-.4,1.05,1.05,0,0,1-.11-.52V39.71a1.52,1.52,0,0,1,.08-.51,1.69,1.69,0,0,1,.34-.47,1,1,0,0,1,.4-.27,1.27,1.27,0,0,1,.54-.1h5.4a2.23,2.23,0,0,0,2.17-1.8c.13-.58.27-1.12.4-1.6s.35-1.06.55-1.6a13.17,13.17,0,0,1,.68-1.56c.24-.54.51-1,.74-1.49a2.14,2.14,0,0,0-.37-2.57l-4.21-4.25s0,0-.07,0a1.49,1.49,0,0,1-.3-.4,1,1,0,0,1-.07-.47,1.1,1.1,0,0,1,.1-.51,1.52,1.52,0,0,1,.34-.48l5.19-5.16a1.33,1.33,0,0,1,.48-.34,1.1,1.1,0,0,1,.51-.1,1.13,1.13,0,0,1,.51.1,1.91,1.91,0,0,1,.44.3h0l3.77,3.67a2.18,2.18,0,0,0,2.74.23c.44-.26.87-.52,1.37-.78l1.5-.75c.5-.23,1-.46,1.57-.65s1-.36,1.64-.55a2.09,2.09,0,0,0,1.46-2V10a1.22,1.22,0,0,1,.1-.53A3.69,3.69,0,0,1,33.41,9a1,1,0,0,1,.4-.26,1.24,1.24,0,0,1,.54-.1h5.71a1.3,1.3,0,0,1,.54.1A.89.89,0,0,1,41,9a3.88,3.88,0,0,1,.27.38,1.19,1.19,0,0,1,.1.53v5.6a2.19,2.19,0,0,0,1.47,2.07c.64.2,1.18.4,1.65.57s1.07.45,1.58.68l1.52.79c.5.27.94.54,1.37.81a2.12,2.12,0,0,0,2.76-.24l3.8-3.83h0a1.38,1.38,0,0,1,.44-.3,1,1,0,0,1,.5-.1,1.13,1.13,0,0,1,.51.1,1.5,1.5,0,0,1,.47.34L62.6,21.6a1.33,1.33,0,0,1,.34.48,1.08,1.08,0,0,1,.1.51,1,1,0,0,1-.07.47,1.55,1.55,0,0,1-.3.4s0,0-.07,0l-4.17,4.25a2.16,2.16,0,0,0-.37,2.57c.24.48.51,1,.74,1.49a15.92,15.92,0,0,1,.67,1.56c.2.54.37,1.06.54,1.6s.27,1,.4,1.6a2.22,2.22,0,0,0,2.15,1.8H67.9a1.27,1.27,0,0,1,.54.1.86.86,0,0,1,.4.27,1.93,1.93,0,0,1,.34.47,2.24,2.24,0,0,1,.07.51v7.42a1.22,1.22,0,0,1-.1.53,1.76,1.76,0,0,1-.29.4,1.14,1.14,0,0,1-.92.39H62.23a2.12,2.12,0,0,0-2,1.45c-.2.62-.39,1.15-.56,1.61s-.43,1.06-.66,1.56a34.54,34.54,0,0,1-1.71,3.09h5c.22-.43.44-.9.66-1.38s.55-1.22.79-1.84c0-.1.1-.24.14-.34h4.36a5.89,5.89,0,0,0,2.2-.4,5.81,5.81,0,0,0,1.88-1.26,5.19,5.19,0,0,0,1.26-1.88,6.08,6.08,0,0,0,.4-2.2V40a5.77,5.77,0,0,0-.45-2.17,5.29,5.29,0,0,0-1.22-1.84l0,0a5.6,5.6,0,0,0-4-1.71H64.55a.68.68,0,0,0-.07-.27c-.2-.64-.4-1.29-.64-1.9s-.51-1.27-.78-1.84a2.23,2.23,0,0,1-.14-.27L66,26.82A5,5,0,0,0,67.28,25a6,6,0,0,0,.44-2.21,5.34,5.34,0,0,0-.44-2.2A6,6,0,0,0,66,18.77h0L60.9,13.71a6.07,6.07,0,0,0-1.85-1.22,5.45,5.45,0,0,0-2.18-.44,5.82,5.82,0,0,0-4,1.66l-2.62,2.57-.2-.1c-.54-.3-1.14-.57-1.78-.87l-1.81-.77-.33-.13V10.14A5.63,5.63,0,0,0,45.71,8a5.75,5.75,0,0,0-1.24-1.84,6,6,0,0,0-1.85-1.23,6.14,6.14,0,0,0-2.18-.39H34.56a6.14,6.14,0,0,0-2.18.39,6.35,6.35,0,0,0-1.85,1.23A5.59,5.59,0,0,0,29.29,8a5.71,5.71,0,0,0-.4,2.15v4.17c-.1,0-.23.1-.33.14-.61.24-1.21.51-1.82.78s-1.24.58-1.78.89l-.2.1L22.14,13.6a5.34,5.34,0,0,0-1.86-1.26,5.55,5.55,0,0,0-2.18-.44,5.25,5.25,0,0,0-2.18.44,5.89,5.89,0,0,0-1.86,1.26L8.92,18.77h0a6.15,6.15,0,0,0-1.24,1.84,5.51,5.51,0,0,0-.44,2.2A6,6,0,0,0,7.65,25a5.16,5.16,0,0,0,1.28,1.8l3,3.1a2.29,2.29,0,0,1-.13.27c-.26.58-.5,1.19-.77,1.84s-.44,1.25-.64,1.9a.9.9,0,0,0-.07.27H6.68a5.13,5.13,0,0,0-2.18.45,5.29,5.29,0,0,0-1.81,1.26l0,0a5.46,5.46,0,0,0-1.21,1.83A5.92,5.92,0,0,0,1,40v6.89a6,6,0,0,0,.4,2.2,5.41,5.41,0,0,0,1.26,1.88A5.46,5.46,0,0,0,4.54,52.2a6,6,0,0,0,2.2.4H11.1c0,.1.1.24.14.34.24.62.51,1.23.79,1.84s.44,1,.66,1.38h4.93Z" style="fill:#ff5d2e;fill-rule:evenodd"/></svg>