<svg id="bde18901-9c5d-4010-9457-0c9872e640c9" data-name="Layer 1" xmlns="http://www.w3.org/2000/svg" viewBox="0 0 89 152"><title>Ethical Value Oriented</title><rect x="14" width="75" height="75" style="fill:#fff;opacity:0"/><line y1="152" x2="28" y2="152" style="fill:none"/><path d="M37,6c.31,0,.62,0,.93,0V6Zm-.43,0h0Z" transform="translate(14)" style="fill:#fff;fill-rule:evenodd"/><path d="M40.86,15.08h0a7.45,7.45,0,0,0-2.92-1.68V9.87a7,7,0,0,1,2.93,1V8.32a6.87,6.87,0,0,0-2.93-.63V6.05c-.31,0-.62,0-.93,0h-.43V7.73a4.36,4.36,0,0,0-2.73,1.19,3.39,3.39,0,0,0-1,2.49,3.43,3.43,0,0,0,0,.56,3.22,3.22,0,0,0,.75,1.74,7.19,7.19,0,0,0,3,1.75v3.39a5.57,5.57,0,0,1-.76-.11,9.12,9.12,0,0,1-1.14-.32l-.52-.2a4.7,4.7,0,0,1-1.09-.61v2.58a7.67,7.67,0,0,0,3.51.85v2h1.36V21a4.68,4.68,0,0,0,2.82-1.14,3.31,3.31,0,0,0,1-2.49A3.22,3.22,0,0,0,40.86,15.08Zm-4.29-2.23a2.33,2.33,0,0,1-.41-.24,1.61,1.61,0,0,1-.88-1.36q0-1.11,1.29-1.35Zm2.66,4.94a1.2,1.2,0,0,1-1,.95l-.3.07V16c.89.39,1.33.88,1.33,1.49A1.55,1.55,0,0,1,39.23,17.79Z" transform="translate(14)" style="fill:#fff;fill-rule:evenodd"/><path d="M69,34.83H50.87a11.51,11.51,0,0,0-8.15,3.39c-3.78,3.78-5,10.17-.58,16.1a10.22,10.22,0,0,0,7.27,3.59H69a1,1,0,0,0,1-1V35.83A1,1,0,0,0,69,34.83Zm-4,18.68H51.75a7.13,7.13,0,0,1-5-12.18,7.09,7.09,0,0,1,5-2.1h13.3Z" transform="translate(14)" style="fill:#ff5d2e;fill-rule:evenodd"/><circle cx="69" cy="46" r="3" style="fill:#ff5d2e"/><path d="M64.05,32.63V30.26a6.73,6.73,0,0,0-2.74-5.49v-1a6.51,6.51,0,0,0-6.52-6.51h-4s0-.78,0-1A13.6,13.6,0,0,0,23.66,16H14a5.9,5.9,0,0,0-6,5.75v42.5A5.9,5.9,0,0,0,14,70H58c3,0,6.07-2.21,6.08-5h0V60.66H59.66V63.3a2.27,2.27,0,0,1-2.23,2.3H15.14A2.19,2.19,0,0,1,13,63.41V23.28a2.2,2.2,0,0,1,2.19-2.19h9.15a12.69,12.69,0,0,0,1.13,2.2H18.73a.85.85,0,0,0-.84.84v3.55H56.54a3.14,3.14,0,0,1,3.12,3.13v1.82ZM40.75,19.84A4.68,4.68,0,0,1,37.93,21v2H36.57V21a7.67,7.67,0,0,1-3.51-.85V17.61a4.7,4.7,0,0,0,1.09.61l.52.2a9.12,9.12,0,0,0,1.14.32,5.57,5.57,0,0,0,.76.11V15.46a7.19,7.19,0,0,1-3-1.75A3.22,3.22,0,0,1,32.85,12a3.43,3.43,0,0,1,0-.56,3.39,3.39,0,0,1,1-2.49,4.36,4.36,0,0,1,2.73-1.19V6h1.36V7.69a6.87,6.87,0,0,1,2.93.63v2.51a7,7,0,0,0-2.93-1v3.52a7.45,7.45,0,0,1,2.92,1.68h0a3.22,3.22,0,0,1,.87,2.27A3.31,3.31,0,0,1,40.75,19.84ZM58,23.32c-.23,0-.45,0-.68,0H49.08a13.43,13.43,0,0,0,1.13-2.2h5.72A2.08,2.08,0,0,1,58,23.17Z" transform="translate(14)" style="fill-rule:evenodd"/><path d="M37,6c.31,0,.62,0,.93,0V6Zm-.43,0h0Z" transform="translate(14)" style="fill:#fff"/><path d="M39.26,17.48a1.55,1.55,0,0,1,0,.31,1.2,1.2,0,0,1-1,.95l-.3.07V16C38.82,16.38,39.26,16.87,39.26,17.48Z" transform="translate(14)"/><path d="M36.57,9.9v2.95a2.33,2.33,0,0,1-.41-.24,1.61,1.61,0,0,1-.88-1.36Q35.28,10.14,36.57,9.9Z" transform="translate(14)"/></svg>