<svg id="ae6a49ae-ce2e-4c74-b2b5-f1cb2971daff" data-name="Layer 1" xmlns="http://www.w3.org/2000/svg" viewBox="0 0 75 75"><title>responsive</title><rect width="75" height="75" style="fill:#fff;opacity:0"/><path d="M47.75,8H15.22a9,9,0,0,0-9,9V37a9,9,0,0,0,9,9h.1L14.6,56.45v.09a1.5,1.5,0,0,0,.37,1,1.52,1.52,0,0,0,2.14.14L30.74,46h17a9,9,0,0,0,9-9V17A9,9,0,0,0,47.75,8Zm5.86,28.94a5.92,5.92,0,0,1-5.89,5.91H30.33a1.47,1.47,0,0,0-1,.44L18.17,52.9l.59-8.42v-.12a1.53,1.53,0,0,0-1.44-1.51H15.45a6.19,6.19,0,0,1-4.29-1.74,5.85,5.85,0,0,1-1.77-4.19V17a6,6,0,0,1,6.06-5.91H47.72A5.92,5.92,0,0,1,53.61,17Z" style="fill-rule:evenodd"/><path d="M30,29.22l-6.12-.57,6.28-12.33h6.94L31.89,23.9l7.09.79L26,40.29l3.95-11.08Z" style="fill:#ff5d2e;fill-rule:evenodd"/><path d="M61.93,23.17a8.74,8.74,0,0,1,7.28,8.46v15A15.57,15.57,0,0,1,65,57.5,7,7,0,0,1,60.31,60H60l.74,10.58h0a.11.11,0,0,1,0,.08A1.32,1.32,0,0,1,59.4,72h0a1.31,1.31,0,0,1-.86-.32L44.9,59.5H26.1l9-8.85H54.32a7.48,7.48,0,0,0,7.61-7.3Z" style="fill-rule:evenodd"/></svg>