<svg id="aba9aeb2-03d2-4378-bfb2-3dc935eba971" data-name="Layer 1" xmlns="http://www.w3.org/2000/svg" viewBox="0 0 75 75"><title>robust-models</title><rect width="75" height="75" style="fill:#fff;opacity:0"/><path d="M36.38,17.5l1.35,1.35a4.39,4.39,0,0,1,0,6.17L34.15,28.6a4.38,4.38,0,0,1-5,.84l6.33-6.33a1.6,1.6,0,0,0,0-2.27l-1.22-1.22a1.6,1.6,0,0,0-2.27,0l-6.29,6.29a4.38,4.38,0,0,1,.9-4.83l3.58-3.58a4.39,4.39,0,0,1,6.17,0ZM30.19,40.19l1.31-.27-.84-4.08-1.31.27.84,4.08ZM21.26,16.67l1.29-.32,1,4-1.29.33-1-4ZM34.9,37.93l.92-1-3-2.9-.93,1,3,2.9Zm3-4.31.35-1.29-4-1.08-.35,1.29,4,1.08Zm-23.6-9.09.37-1.28,4,1.14-.36,1.28-4-1.14Zm2.22-4.78.95-.94,2.94,2.94-.94.95-2.95-2.95ZM15.07,38.81l1.35,1.35a4.37,4.37,0,0,0,6.17,0l3.57-3.57a4.4,4.4,0,0,0,.85-5l-6.33,6.33a1.6,1.6,0,0,1-2.27,0l-1.22-1.22a1.6,1.6,0,0,1,0-2.27l6.29-6.29a4.38,4.38,0,0,0-4.83.91l-3.58,3.57a4.37,4.37,0,0,0,0,6.17Z" style="fill:#ff5d2e;fill-rule:evenodd"/><path d="M2.73,7H72a2,2,0,0,1,2,2V55a2,2,0,0,1-2,2H2.73a2,2,0,0,1-2-2V9a2,2,0,0,1,2-2ZM54.94,44.25l-5.36-3V39.53l5.36-3v2l-3.73,1.86,3.73,1.92v2Zm1.12,1.47L58,35h1.14l-2,10.73Zm4.24-1.46v-2L64,40.41,60.3,38.5v-2l5.36,3v1.7l-5.36,3ZM28.06,60H46.6c0,3.21,1.37,6.08,4.95,8.34H23.12c2.86-2.07,5-4.59,4.94-8.34Zm9.27-9.56A2.56,2.56,0,1,1,34.78,53a2.56,2.56,0,0,1,2.55-2.55ZM6.67,11.17h61.4a1.76,1.76,0,0,1,1.76,1.76v34a1.76,1.76,0,0,1-1.76,1.75H6.66a1.76,1.76,0,0,1-1.75-1.75v-34a1.75,1.75,0,0,1,1.76-1.74Z" style="fill-rule:evenodd"/><rect x="20.52" y="27.15" width="11.76" height="3.36" rx="1" transform="translate(-12.66 27.11) rotate(-45)" style="fill:#ff5d2e"/></svg>