<svg xmlns="http://www.w3.org/2000/svg" xmlns:xlink="http://www.w3.org/1999/xlink" width="70" height="70" viewBox="0 0 70 70">
  <defs>
    <clipPath id="clip-path">
      <path id="Intersection_10" data-name="Intersection 10" d="M0,63.569V0H68.441V63.569Z" fill="none"/>
    </clipPath>
    <clipPath id="clip-path-2">
      <path id="Path_1124" data-name="Path 1124" d="M.72,68.57H69.162V5H.72V68.57Z" transform="translate(-0.72 -5)" fill="none"/>
    </clipPath>
  </defs>
  <g id="Fraud" transform="translate(-0.128)">
    <rect id="Rectangle_564" data-name="Rectangle 564" width="70" height="70" transform="translate(0.128)" fill="none"/>
    <g id="Group_298" data-name="Group 298" transform="translate(0.582 4.658)" clip-path="url(#clip-path)">
      <g id="Group_297" data-name="Group 297" transform="translate(0 0)" clip-path="url(#clip-path-2)">
        <path id="Path_1122" data-name="Path 1122" d="M31.933,8.09,2.515,59.233A3.54,3.54,0,0,0,5.57,64.552H64.417a3.549,3.549,0,0,0,3.056-5.319L38.044,8.09a3.521,3.521,0,0,0-6.111,0Z" transform="translate(-0.81 -5.09)" fill="none" stroke="#fc7f03" stroke-linecap="round" stroke-linejoin="round" stroke-width="1.207"/>
        <path id="Path_1123" data-name="Path 1123" d="M38.906,47.139l.7-24.379H34.76l.708,24.379ZM37.192,57.544a2.869,2.869,0,0,0,2.171-.932,3.531,3.531,0,0,0,0-4.5,3.074,3.074,0,0,0-4.313,0,3.465,3.465,0,0,0,0,4.5,2.878,2.878,0,0,0,2.161.932Z" transform="translate(-3.013 -6.216)" fill="#fff"/>
      </g>
    </g>
  </g>
</svg>
