<svg xmlns="http://www.w3.org/2000/svg" xmlns:xlink="http://www.w3.org/1999/xlink" width="70" height="70" viewBox="0 0 70 70">
  <defs>
    <clipPath id="clip-path">
      <path id="Intersection_11" data-name="Intersection 11" d="M0,48.907V0H66.839V48.907Z" fill="none"/>
    </clipPath>
    <clipPath id="clip-path-2">
      <path id="Path_1134" data-name="Path 1134" d="M2.25,61.607H69.089V12.7H2.25V61.607Z" transform="translate(-2.25 -12.7)" fill="none"/>
    </clipPath>
  </defs>
  <g id="Marketing" transform="translate(0.308)">
    <rect id="Rectangle_565" data-name="Rectangle 565" width="70" height="70" transform="translate(-0.308)" fill="none"/>
    <g id="Marketing-2" data-name="Marketing" transform="translate(1.963 11.831)">
      <g id="Group_300" data-name="Group 300" clip-path="url(#clip-path)">
        <g id="Group_299" data-name="Group 299" transform="translate(0 0)" clip-path="url(#clip-path-2)">
          <path id="Path_1127" data-name="Path 1127" d="M58.792,24.984a5.822,5.822,0,1,1,5.822-5.822,5.822,5.822,0,0,1-5.822,5.822Zm0-9.25a3.428,3.428,0,1,0,3.419,3.428h0a3.428,3.428,0,0,0-3.419-3.428Z" transform="translate(-5.721 -12.744)" fill="#fc7f03"/>
          <path id="Path_1128" data-name="Path 1128" d="M60.79,18.917l-1.863-1.043a.671.671,0,0,0-1,.587V20.5a.671.671,0,0,0,.671.671.68.68,0,0,0,.326-.084l1.863-1.034a.661.661,0,0,0,.261-.932.587.587,0,0,0-.261-.2Z" transform="translate(-6.061 -13.048)" fill="#fc7f03"/>
          <path id="Path_1129" data-name="Path 1129" d="M58.792,53.444a5.822,5.822,0,1,1,5.822-5.822,5.822,5.822,0,0,1-5.822,5.822Zm0-9.241a3.428,3.428,0,1,0,3.419,3.419h0A3.419,3.419,0,0,0,58.792,44.2Z" transform="translate(-5.721 -14.692)" fill="#fc7f03"/>
          <path id="Path_1130" data-name="Path 1130" d="M66.572,39.215a5.822,5.822,0,1,1,5.822-5.822h0a5.822,5.822,0,0,1-5.822,5.822Zm0-9.241a3.419,3.419,0,1,0,3.419,3.419h0A3.419,3.419,0,0,0,66.572,29.973Z" transform="translate(-6.254 -13.718)" fill="#fc7f03"/>
          <path id="Path_1131" data-name="Path 1131" d="M41.962,27.08V19.3a1.043,1.043,0,0,0-.065-.373,1.2,1.2,0,0,0-1.509-.773L25.409,22.907H8.967A2.664,2.664,0,0,0,6.3,25.571v1.267H4.178A1.928,1.928,0,0,0,2.25,28.766v7.956A1.928,1.928,0,0,0,4.178,38.65H6.3v1.267a2.664,2.664,0,0,0,2.664,2.664h.5V44.77a1.928,1.928,0,0,0,.932,1.621L13.382,59.5H9.656a1.2,1.2,0,0,0,0,2.4h30.1a1.2,1.2,0,0,0,0-2.4H22.511l-.373-13.247a1.956,1.956,0,0,0,.717-1.481V42.581h2.562l14.97,4.751a1.229,1.229,0,0,0,.363.056h0a1.2,1.2,0,0,0,1.2-1.2V38.408a5.9,5.9,0,0,0,0-11.328ZM4.653,36.247V29.241H6.3v7.005Zm4.052,3.726v-14.4a.261.261,0,0,1,.261-.261H24.375v14.9H8.967a.261.261,0,0,1-.261-.289Zm7.08,19.563L12.87,46.7h6.847l.363,12.8Zm4.658-15.2H11.836V42.581h8.608Zm19.106.252-2.059-.652v-6.1a1.2,1.2,0,1,0-2.4,0v5.329l-8.282-2.627V24.984l8.282-2.627V33.275h0a1.2,1.2,0,1,0,2.4,0V21.593l2.059-.652V37.42h0Zm2.413-8.71V29.651a3.512,3.512,0,0,1,0,6.186Z" transform="translate(-2.25 -13.069)" fill="#fff"/>
          <path id="Path_1132" data-name="Path 1132" d="M68.17,33.257l-1.863-1.043a.671.671,0,0,0-1,.587v2.077a.671.671,0,0,0,.671.671.633.633,0,0,0,.326-.084l1.863-1.043a.661.661,0,0,0,0-1.164Z" transform="translate(-6.566 -14.03)" fill="#fc7f03"/>
          <path id="Path_1133" data-name="Path 1133" d="M60.369,47.337,58.505,46.3a.671.671,0,0,0-.932.261.68.68,0,0,0-.084.326v2.077a.671.671,0,0,0,.671.671.68.68,0,0,0,.326-.084l1.863-1.043a.671.671,0,0,0,.252-.932.745.745,0,0,0-.252-.261Z" transform="translate(-6.031 -14.993)" fill="#fc7f03"/>
        </g>
      </g>
    </g>
  </g>
</svg>
