<svg xmlns="http://www.w3.org/2000/svg" xmlns:xlink="http://www.w3.org/1999/xlink" width="70" height="70" viewBox="0 0 70 70">
  <defs>
    <clipPath id="clip-path">
      <path id="Intersection_12" data-name="Intersection 12" d="M0,53.937V0H67.966V53.937Z" fill="none"/>
    </clipPath>
    <clipPath id="clip-path-2">
      <path id="Path_1149" data-name="Path 1149" d="M1.04,61.937H69.007V8H1.04V61.937Z" transform="translate(-1.04 -8)" fill="none"/>
    </clipPath>
  </defs>
  <g id="Oper" transform="translate(-0.256)">
    <rect id="Rectangle_566" data-name="Rectangle 566" width="70" height="70" transform="translate(0.256)" fill="none"/>
    <g id="Operations_efficiency" data-name="Operations efficiency" transform="translate(0.792 7.453)">
      <g id="Group_302" data-name="Group 302" clip-path="url(#clip-path)">
        <g id="Group_301" data-name="Group 301" transform="translate(0 0)" clip-path="url(#clip-path-2)">
          <path id="Path_1137" data-name="Path 1137" d="M31.229,57.485a2.795,2.795,0,1,1-2.795-2.795h0a2.8,2.8,0,0,1,2.748,2.795Z" transform="translate(-2.724 -11.195)" fill="#fc7f03"/>
          <path id="Path_1138" data-name="Path 1138" d="M56,36.715a2.795,2.795,0,1,1-2.748-2.795A2.795,2.795,0,0,1,56,36.715Z" transform="translate(-4.419 -9.774)" fill="#fc7f03"/>
          <path id="Path_1139" data-name="Path 1139" d="M26.829,15.935a2.795,2.795,0,1,1-2.748-2.795A2.795,2.795,0,0,1,26.829,15.935Z" transform="translate(-2.422 -8.352)" fill="#fc7f03"/>
          <path id="Path_1140" data-name="Path 1140" d="M16.7,17.279H2.286A1.22,1.22,0,0,1,1,16.077,1.239,1.239,0,0,1,2.2,14.81H16.7a1.235,1.235,0,0,1,0,2.469Z" transform="translate(-1.037 -8.466)" fill="#fff"/>
          <path id="Path_1141" data-name="Path 1141" d="M69.63,17.279H30.645a1.239,1.239,0,0,1-.056-2.469H69.63a1.239,1.239,0,0,1,1.2,1.267A1.22,1.22,0,0,1,69.63,17.279Z" transform="translate(-2.987 -8.466)" fill="#fff"/>
          <path id="Path_1142" data-name="Path 1142" d="M43.861,38.059H2.295a1.239,1.239,0,0,1-.056-2.469H43.861a1.239,1.239,0,0,1,.056,2.469Z" transform="translate(-1.046 -9.888)" fill="#fff"/>
          <path id="Path_1143" data-name="Path 1143" d="M71.629,38.059H59.817a1.239,1.239,0,0,1,0-2.469H71.629a1.239,1.239,0,0,1,0,2.469Z" transform="translate(-4.985 -9.888)" fill="#fff"/>
          <path id="Path_1144" data-name="Path 1144" d="M69.934,58.819H35.047a1.239,1.239,0,0,1,0-2.469H69.934a1.239,1.239,0,0,1,0,2.469Z" transform="translate(-3.29 -11.309)" fill="#fff"/>
          <path id="Path_1145" data-name="Path 1145" d="M20.8,58.819H2.3a1.239,1.239,0,0,1,0-2.469H20.8a1.239,1.239,0,0,1,0,2.469Z" transform="translate(-1.049 -11.309)" fill="#fff"/>
          <path id="Path_1146" data-name="Path 1146" d="M23.755,22.854a7.238,7.238,0,1,1,5.121-2.123,7.257,7.257,0,0,1-5.121,2.123Zm0-12.036a4.788,4.788,0,1,0,4.77,4.788h0A4.779,4.779,0,0,0,23.755,10.818Z" transform="translate(-2.097 -8.023)" fill="#fc7f03"/>
          <path id="Path_1147" data-name="Path 1147" d="M52.925,43.634a7.257,7.257,0,1,1,7.238-7.257h0a7.257,7.257,0,0,1-7.238,7.248Zm0-12.036a4.788,4.788,0,1,0,4.77,4.788A4.788,4.788,0,0,0,52.925,31.6Z" transform="translate(-4.093 -9.445)" fill="#fc7f03"/>
          <path id="Path_1148" data-name="Path 1148" d="M28.155,64.414a7.257,7.257,0,1,1,7.229-7.257h0a7.257,7.257,0,0,1-7.229,7.257Zm0-12.036a4.788,4.788,0,1,0,4.77,4.779,4.788,4.788,0,0,0-4.77-4.779Z" transform="translate(-2.397 -10.868)" fill="#fc7f03"/>
        </g>
      </g>
    </g>
  </g>
</svg>
