<svg xmlns="http://www.w3.org/2000/svg" xmlns:xlink="http://www.w3.org/1999/xlink" width="69" height="70" viewBox="0 0 69 70">
  <defs>
    <clipPath id="clip-path">
      <path id="Path_1178" data-name="Path 1178" d="M4.76,69.905H68.916V.56H4.76V69.905Z" transform="translate(-4.76 -0.56)" fill="none"/>
    </clipPath>
  </defs>
  <g id="Underwriting" transform="translate(-0.384 -0.341)">
    <rect id="Rectangle_568" data-name="Rectangle 568" width="69" height="70" transform="translate(0.384 0.341)" fill="none"/>
    <path id="Path_1165" data-name="Path 1165" d="M4.76,69.905H68.916V.56H4.76V69.905Z" transform="translate(-0.591 -0.04)" fill="none" fill-rule="evenodd"/>
    <g id="Group_305" data-name="Group 305" transform="translate(4.169 0.52)" clip-path="url(#clip-path)">
      <path id="Path_1166" data-name="Path 1166" d="M67.069,60.051a1.4,1.4,0,0,1-.438-.075l-1.593-.606a13.973,13.973,0,0,0-9.809,0l-1.621.606a1.239,1.239,0,0,1-1.584-.727,1.286,1.286,0,0,1-.075-.419V10.39a1.23,1.23,0,0,1,1.22-1.23H67.079a1.23,1.23,0,0,1,1.22,1.23V58.831A1.23,1.23,0,0,1,67.069,60.051ZM60.1,56.027a16.5,16.5,0,0,1,5.738,1.034V11.573H54.381V57.051a16.48,16.48,0,0,1,5.729-1.025Z" transform="translate(-7.99 -1.149)" fill="#fff"/>
      <path id="Path_1167" data-name="Path 1167" d="M60.108,73.6a1.239,1.239,0,0,1-1.015-.475L52.134,63.088a1.231,1.231,0,1,1,2.021-1.407l5.953,8.542,5.943-8.542a1.231,1.231,0,1,1,2.021,1.407L61.114,73.121a1.239,1.239,0,0,1-1.006.522Z" transform="translate(-7.987 -4.707)" fill="#fff"/>
      <path id="Path_1168" data-name="Path 1168" d="M60.618,58.458a1.23,1.23,0,0,1-1.23-1.22V10.324a1.23,1.23,0,1,1,2.431-.056V57.238a1.23,1.23,0,0,1-1.23,1.22Z" transform="translate(-8.498 -1.13)" fill="#fff"/>
      <path id="Path_1169" data-name="Path 1169" d="M66.973,10.984H53a2.962,2.962,0,0,1-3-2.972V4.556a4,4,0,0,1,4.015-4H65.939a4.006,4.006,0,0,1,4.006,4V8.012A2.981,2.981,0,0,1,66.973,10.984ZM54.015,3.019a1.546,1.546,0,0,0-1.546,1.537V8.012a.512.512,0,0,0,.512.512H66.954a.512.512,0,0,0,.512-.512V4.566a1.546,1.546,0,0,0-1.528-1.546Z" transform="translate(-7.856 -0.56)" fill="#fff"/>
      <path id="Path_1170" data-name="Path 1170" d="M42.521,12.729H5.985a1.231,1.231,0,0,1-.13-2.459H42.521a1.23,1.23,0,0,1,0,2.459Z" transform="translate(-4.756 -1.225)" fill="#fc7f03"/>
      <path id="Path_1171" data-name="Path 1171" d="M42.533,21.58H6a1.23,1.23,0,0,1,0-2.45H42.533a1.23,1.23,0,0,1,0,2.45Z" transform="translate(-4.768 -1.831)" fill="#fc7f03"/>
      <path id="Path_1172" data-name="Path 1172" d="M42.525,30.439H5.99a1.23,1.23,0,1,1,0-2.459H42.525a1.23,1.23,0,1,1,0,2.459Z" transform="translate(-4.76 -2.437)" fill="#fc7f03"/>
      <path id="Path_1173" data-name="Path 1173" d="M42.533,39.3H6a1.23,1.23,0,0,1,0-2.45H42.533a1.23,1.23,0,1,1,.056,2.459Z" transform="translate(-4.768 -3.044)" fill="#fc7f03"/>
      <path id="Path_1174" data-name="Path 1174" d="M42.523,48.149H5.987a1.23,1.23,0,1,1-.075-2.459h36.61a1.23,1.23,0,1,1,.056,2.45Z" transform="translate(-4.757 -3.648)" fill="#fc7f03"/>
      <path id="Path_1175" data-name="Path 1175" d="M42.533,57.01H6a1.23,1.23,0,0,1,0-2.45H42.533a1.23,1.23,0,0,1,0,2.45Z" transform="translate(-4.768 -4.256)" fill="#fc7f03"/>
      <path id="Path_1176" data-name="Path 1176" d="M42.533,65.82H6a1.23,1.23,0,0,1,0-2.45H42.533a1.23,1.23,0,0,1,0,2.459Z" transform="translate(-4.768 -4.859)" fill="#fc7f03"/>
      <path id="Path_1177" data-name="Path 1177" d="M67.6,74.719H5.987a1.23,1.23,0,1,1-.075-2.459H67.582a1.23,1.23,0,0,1,0,2.45Z" transform="translate(-4.757 -5.467)" fill="#fff"/>
    </g>
    <path id="Path_1179" data-name="Path 1179" d="M4.76.56H68.916V69.905H4.76V.56Z" transform="translate(-0.591 -0.04)" fill="none" fill-rule="evenodd"/>
  </g>
</svg>
