<svg id="f5cfe8d1-625c-4882-a4cf-94d33b28c888" data-name="Layer 1" xmlns="http://www.w3.org/2000/svg" xmlns:xlink="http://www.w3.org/1999/xlink" viewBox="0 0 70 70"><defs><clipPath id="b454371c-91b0-4c80-a44c-9e4b7532d7b2"><polygon points="3.72 71 71 71 71 3.72 3.72 3.72 3.72 71 3.72 71" style="fill:none;clip-rule:evenodd"/></clipPath><clipPath id="b70a1524-7318-4df6-b3c9-33265df44078" transform="translate(-2.5 -2.5)"><polygon points="3.72 3.72 71 3.72 71 71 3.72 71 3.72 3.72 3.72 3.72" style="fill:none;clip-path:url(#b454371c-91b0-4c80-a44c-9e4b7532d7b2);clip-rule:evenodd"/></clipPath><clipPath id="e10051b0-a513-4844-826c-0fe21646267f" transform="translate(-2.5 -2.5)"><polygon points="3.72 71 71 71 71 3.72 3.72 3.72 3.72 71 3.72 71" style="fill:none"/></clipPath></defs><title>Customer-servicing</title><rect width="70" height="70" style="fill:#fff"/><g style="clip-path:url(#b70a1524-7318-4df6-b3c9-33265df44078)"><g style="clip-path:url(#e10051b0-a513-4844-826c-0fe21646267f)"><path d="M37.33,41.56a8.36,8.36,0,1,1,8.36-8.36,8.36,8.36,0,0,1-8.36,8.36Zm0-14.33a6,6,0,1,0,6,6h0a6,6,0,0,0-6-6Z" transform="translate(-2.5 -2.5)" style="fill:#fc7f03"/><path d="M49.23,32.08H47.32a10,10,0,0,0-20,0H25.44a11.95,11.95,0,0,1,23.79,0Z" transform="translate(-2.5 -2.5)" style="fill:#fc7f03"/><path d="M51.35,51.87h-28a1.19,1.19,0,0,1-1.19-1.19V45a7.17,7.17,0,0,1,5.48-7l4.22-1a1.2,1.2,0,0,1,1.15.34,6,6,0,0,0,8.42.28l.27-.28A1.21,1.21,0,0,1,42.83,37l4.22,1a7.18,7.18,0,0,1,5.49,7v5.7a1.19,1.19,0,0,1-1.19,1.19ZM24.52,49.49H50.16V45a4.82,4.82,0,0,0-3.67-4.68l-3.58-.88a8.33,8.33,0,0,1-11.14,0l-3.59.88A4.82,4.82,0,0,0,24.51,45Z" transform="translate(-2.5 -2.5)" style="fill:#fc7f03"/><path d="M37.33,17.73a1.18,1.18,0,0,1-1.18-1.19V7.59a1.19,1.19,0,1,1,2.38,0v9a1.2,1.2,0,0,1-1.2,1.19Z" transform="translate(-2.5 -2.5)" style="fill:#fff"/><path d="M37.33,18a1.2,1.2,0,0,1-.75-.26l-3.35-2.72a1.19,1.19,0,1,1,1.48-1.87l0,0,2.59,2.11,2.56-2.11A1.19,1.19,0,0,1,41.39,15l-3.3,2.72a1.18,1.18,0,0,1-.76.27Z" transform="translate(-2.5 -2.5)" style="fill:#fff"/><path d="M6.11,27.21A1.19,1.19,0,0,1,4.92,26a1.34,1.34,0,0,1,.07-.4A34.65,34.65,0,0,1,29.92,3.75a1.19,1.19,0,0,1,.54,2.31h0A32.28,32.28,0,0,0,7.22,26.43a1.18,1.18,0,0,1-1.11.78Z" transform="translate(-2.5 -2.5)" style="fill:#fff"/><path d="M30.15,70.93a1.09,1.09,0,0,1-.26,0,34.3,34.3,0,0,1-23-17.52A1.19,1.19,0,1,1,9,52.27,31.93,31.93,0,0,0,30.4,68.58,1.19,1.19,0,0,1,31.31,70a1.21,1.21,0,0,1-1.16.93Z" transform="translate(-2.5 -2.5)" style="fill:#fff"/><path d="M37.3,68.25a1.21,1.21,0,0,1-1.19-1.19h0v-9a1.19,1.19,0,0,1,2.38,0v9a1.19,1.19,0,0,1-1.19,1.19Z" transform="translate(-2.5 -2.5)" style="fill:#fff"/><path d="M40.66,61.71a1.15,1.15,0,0,1-.75-.27l-2.59-2.1-2.55,2.1a1.19,1.19,0,0,1-1.55-1.81l0,0,3.3-2.72a1.18,1.18,0,0,1,1.5,0l3.35,2.72a1.19,1.19,0,0,1-.75,2.11Z" transform="translate(-2.5 -2.5)" style="fill:#fff"/><path d="M67.06,38.53h-9a1.19,1.19,0,0,1,0-2.38h9a1.19,1.19,0,0,1,0,2.38Z" transform="translate(-2.5 -2.5)" style="fill:#fff"/><path d="M60.52,41.82a1.18,1.18,0,0,1-.92-.44l-2.72-3.3a1.18,1.18,0,0,1,0-1.5l2.72-3.35a1.19,1.19,0,0,1,1.84,1.5l-2.1,2.6,2.1,2.54a1.19,1.19,0,0,1-.16,1.68,1.22,1.22,0,0,1-.76.27Z" transform="translate(-2.5 -2.5)" style="fill:#fff"/><path d="M23.43,68.66a1.25,1.25,0,0,1-.5-.11A34.56,34.56,0,0,1,3.75,44.73a1.19,1.19,0,1,1,2.31-.54v0A32.19,32.19,0,0,0,23.93,66.39a1.19,1.19,0,0,1-.5,2.27Z" transform="translate(-2.5 -2.5)" style="fill:#fff"/><path d="M52.08,68.25a1.19,1.19,0,0,1-1.19-1.19A1.22,1.22,0,0,1,51.55,66a31.79,31.79,0,0,0,17-21.74,1.19,1.19,0,1,1,2.33.47v0A34.18,34.18,0,0,1,52.61,68.12a1.07,1.07,0,0,1-.53.13Z" transform="translate(-2.5 -2.5)" style="fill:#fff"/><path d="M69.73,31.36a1.19,1.19,0,0,1-1.16-.93,32.13,32.13,0,0,0-6.3-13.14,1.19,1.19,0,0,1,1.85-1.49,34.42,34.42,0,0,1,6.77,14.12A1.19,1.19,0,0,1,70,31.34l-.25,0Z" transform="translate(-2.5 -2.5)" style="fill:#fff"/><path d="M4.91,31.33a1.19,1.19,0,0,1-1.19-1.19,1.07,1.07,0,0,1,0-.25,34.09,34.09,0,0,1,9.53-17.15A1.19,1.19,0,0,1,15,14.38l-.06.06a31.82,31.82,0,0,0-8.87,16,1.19,1.19,0,0,1-1.16.93Z" transform="translate(-2.5 -2.5)" style="fill:#fff"/><path d="M16.54,38.5H7.59a1.19,1.19,0,0,1,0-2.38h9a1.19,1.19,0,0,1,0,2.38Z" transform="translate(-2.5 -2.5)" style="fill:#fff"/><path d="M14.12,41.85a1.19,1.19,0,0,1-1.19-1.19,1.23,1.23,0,0,1,.27-.75l2.1-2.59-2.1-2.55A1.19,1.19,0,0,1,15,33.26l2.72,3.3a1.19,1.19,0,0,1,0,1.51L15,41.41a1.17,1.17,0,0,1-.92.44Z" transform="translate(-2.5 -2.5)" style="fill:#fff"/><path d="M44.47,70.93a1.19,1.19,0,0,1-.26-2.36,31.75,31.75,0,0,0,8.59-3.24A1.19,1.19,0,0,1,54,67.41a34.25,34.25,0,0,1-9.23,3.49,1.15,1.15,0,0,1-.26,0Z" transform="translate(-2.5 -2.5)" style="fill:#fff"/><path d="M53.38,67.56a1.19,1.19,0,0,1-.58-2.23,31.91,31.91,0,0,0,8.6-6.95,1.2,1.2,0,0,1,1.68-.11A1.18,1.18,0,0,1,63.19,60,34.65,34.65,0,0,1,54,67.41a1.32,1.32,0,0,1-.58.15Z" transform="translate(-2.5 -2.5)" style="fill:#fff"/><path d="M62.58,17a1.17,1.17,0,0,1-.9-.42A32.19,32.19,0,0,0,44.24,6.07a1.18,1.18,0,0,1-.92-1.4,1.19,1.19,0,0,1,1.4-.93h0A34.56,34.56,0,0,1,63.49,15a1.19,1.19,0,0,1-.91,2Z" transform="translate(-2.5 -2.5)" style="fill:#fff"/><rect x="22.41" y="27.47" width="3.11" height="3.71" rx="0.78" style="fill:#fc7f03"/><rect x="44.1" y="27.47" width="3.11" height="3.71" rx="0.78" style="fill:#fc7f03"/></g></g><g style="clip-path:url(#b70a1524-7318-4df6-b3c9-33265df44078)"><g style="clip-path:url(#e10051b0-a513-4844-826c-0fe21646267f)"><path d="M37.33,41.56a8.36,8.36,0,1,1,8.36-8.36,8.36,8.36,0,0,1-8.36,8.36Zm0-14.33a6,6,0,1,0,6,6h0a6,6,0,0,0-6-6Z" transform="translate(-2.5 -2.5)" style="fill:#000926"/><path d="M49.23,32.08H47.32a10,10,0,0,0-20,0H25.44a11.95,11.95,0,0,1,23.79,0Z" transform="translate(-2.5 -2.5)" style="fill:#000926"/><path d="M51.35,51.87h-28a1.19,1.19,0,0,1-1.19-1.19V45a7.17,7.17,0,0,1,5.48-7l4.22-1a1.2,1.2,0,0,1,1.15.34,6,6,0,0,0,8.42.28l.27-.28A1.21,1.21,0,0,1,42.83,37l4.22,1a7.18,7.18,0,0,1,5.49,7v5.7a1.19,1.19,0,0,1-1.19,1.19ZM24.52,49.49H50.16V45a4.82,4.82,0,0,0-3.67-4.68l-3.58-.88a8.33,8.33,0,0,1-11.14,0l-3.59.88A4.82,4.82,0,0,0,24.51,45Z" transform="translate(-2.5 -2.5)" style="fill:#000926"/><path d="M37.33,17.73a1.18,1.18,0,0,1-1.18-1.19V7.59a1.19,1.19,0,1,1,2.38,0v9a1.2,1.2,0,0,1-1.2,1.19Z" transform="translate(-2.5 -2.5)" style="fill:#000926"/><path d="M37.33,18a1.2,1.2,0,0,1-.75-.26l-3.35-2.72a1.19,1.19,0,1,1,1.48-1.87l0,0,2.59,2.11,2.56-2.11A1.19,1.19,0,0,1,41.39,15l-3.3,2.72a1.18,1.18,0,0,1-.76.27Z" transform="translate(-2.5 -2.5)" style="fill:#000926"/><path d="M6.11,27.21A1.19,1.19,0,0,1,4.92,26a1.34,1.34,0,0,1,.07-.4A34.65,34.65,0,0,1,29.92,3.75a1.19,1.19,0,0,1,.54,2.31h0A32.28,32.28,0,0,0,7.22,26.43a1.18,1.18,0,0,1-1.11.78Z" transform="translate(-2.5 -2.5)" style="fill:#000926"/><path d="M30.15,70.93a1.09,1.09,0,0,1-.26,0,34.3,34.3,0,0,1-23-17.52A1.19,1.19,0,1,1,9,52.27,31.93,31.93,0,0,0,30.4,68.58,1.19,1.19,0,0,1,31.31,70a1.21,1.21,0,0,1-1.16.93Z" transform="translate(-2.5 -2.5)" style="fill:#000926"/><path d="M37.3,68.25a1.21,1.21,0,0,1-1.19-1.19h0v-9a1.19,1.19,0,0,1,2.38,0v9a1.19,1.19,0,0,1-1.19,1.19Z" transform="translate(-2.5 -2.5)" style="fill:#000926"/><path d="M40.66,61.71a1.15,1.15,0,0,1-.75-.27l-2.59-2.1-2.55,2.1a1.19,1.19,0,0,1-1.55-1.81l0,0,3.3-2.72a1.18,1.18,0,0,1,1.5,0l3.35,2.72a1.19,1.19,0,0,1-.75,2.11Z" transform="translate(-2.5 -2.5)" style="fill:#000926"/><path d="M67.06,38.53h-9a1.19,1.19,0,0,1,0-2.38h9a1.19,1.19,0,0,1,0,2.38Z" transform="translate(-2.5 -2.5)" style="fill:#000926"/><path d="M60.52,41.82a1.18,1.18,0,0,1-.92-.44l-2.72-3.3a1.18,1.18,0,0,1,0-1.5l2.72-3.35a1.19,1.19,0,0,1,1.84,1.5l-2.1,2.6,2.1,2.54a1.19,1.19,0,0,1-.16,1.68,1.22,1.22,0,0,1-.76.27Z" transform="translate(-2.5 -2.5)" style="fill:#000926"/><path d="M23.43,68.66a1.25,1.25,0,0,1-.5-.11A34.56,34.56,0,0,1,3.75,44.73a1.19,1.19,0,1,1,2.31-.54v0A32.19,32.19,0,0,0,23.93,66.39a1.19,1.19,0,0,1-.5,2.27Z" transform="translate(-2.5 -2.5)" style="fill:#000926"/><path d="M52.08,68.25a1.19,1.19,0,0,1-1.19-1.19A1.22,1.22,0,0,1,51.55,66a31.79,31.79,0,0,0,17-21.74,1.19,1.19,0,1,1,2.33.47v0A34.18,34.18,0,0,1,52.61,68.12a1.07,1.07,0,0,1-.53.13Z" transform="translate(-2.5 -2.5)" style="fill:#000926"/><path d="M69.73,31.36a1.19,1.19,0,0,1-1.16-.93,32.13,32.13,0,0,0-6.3-13.14,1.19,1.19,0,0,1,1.85-1.49,34.42,34.42,0,0,1,6.77,14.12A1.19,1.19,0,0,1,70,31.34l-.25,0Z" transform="translate(-2.5 -2.5)" style="fill:#000926"/><path d="M4.91,31.33a1.19,1.19,0,0,1-1.19-1.19,1.07,1.07,0,0,1,0-.25,34.09,34.09,0,0,1,9.53-17.15A1.19,1.19,0,0,1,15,14.38l-.06.06a31.82,31.82,0,0,0-8.87,16,1.19,1.19,0,0,1-1.16.93Z" transform="translate(-2.5 -2.5)" style="fill:#000926"/><path d="M16.54,38.5H7.59a1.19,1.19,0,0,1,0-2.38h9a1.19,1.19,0,0,1,0,2.38Z" transform="translate(-2.5 -2.5)" style="fill:#000926"/><path d="M14.12,41.85a1.19,1.19,0,0,1-1.19-1.19,1.23,1.23,0,0,1,.27-.75l2.1-2.59-2.1-2.55A1.19,1.19,0,0,1,15,33.26l2.72,3.3a1.19,1.19,0,0,1,0,1.51L15,41.41a1.17,1.17,0,0,1-.92.44Z" transform="translate(-2.5 -2.5)" style="fill:#000926"/><path d="M44.47,70.93a1.19,1.19,0,0,1-.26-2.36,31.75,31.75,0,0,0,8.59-3.24A1.19,1.19,0,0,1,54,67.41a34.25,34.25,0,0,1-9.23,3.49,1.15,1.15,0,0,1-.26,0Z" transform="translate(-2.5 -2.5)" style="fill:#000926"/><path d="M53.38,67.56a1.19,1.19,0,0,1-.58-2.23,31.91,31.91,0,0,0,8.6-6.95,1.2,1.2,0,0,1,1.68-.11A1.18,1.18,0,0,1,63.19,60,34.65,34.65,0,0,1,54,67.41a1.32,1.32,0,0,1-.58.15Z" transform="translate(-2.5 -2.5)" style="fill:#000926"/><path d="M62.58,17a1.17,1.17,0,0,1-.9-.42A32.19,32.19,0,0,0,44.24,6.07a1.18,1.18,0,0,1-.92-1.4,1.19,1.19,0,0,1,1.4-.93h0A34.56,34.56,0,0,1,63.49,15a1.19,1.19,0,0,1-.91,2Z" transform="translate(-2.5 -2.5)" style="fill:#000926"/><rect x="22.41" y="27.47" width="3.11" height="3.71" rx="0.78" style="fill:#000926"/><rect x="44.1" y="27.47" width="3.11" height="3.71" rx="0.78" style="fill:#000926"/></g></g></svg>