<svg xmlns="http://www.w3.org/2000/svg" xmlns:xlink="http://www.w3.org/1999/xlink" width="70" height="70" viewBox="0 0 70 70">
  <defs>
    <clipPath id="clip-path">
      <path id="Intersection_10" data-name="Intersection 10" d="M0,63.975V0H68.878V63.975Z" fill="#000926"/>
    </clipPath>
    <clipPath id="clip-path-2">
      <path id="Path_1124" data-name="Path 1124" d="M.72,68.975H69.6V5H.72V68.975Z" transform="translate(-0.72 -5)" fill="none"/>
    </clipPath>
  </defs>
  <g id="Fraud" transform="translate(0.114)">
    <rect id="Rectangle_564" data-name="Rectangle 564" width="70" height="70" transform="translate(-0.114)" fill="none"/>
    <g id="Group_298" data-name="Group 298" transform="translate(0.186 4.688)" clip-path="url(#clip-path)">
      <g id="Group_297" data-name="Group 297" transform="translate(0 0)" clip-path="url(#clip-path-2)">
        <path id="Path_1122" data-name="Path 1122" d="M32.124,8.1,2.518,59.57a3.563,3.563,0,0,0,3.075,5.353H64.815A3.572,3.572,0,0,0,67.89,59.57L38.274,8.1a3.544,3.544,0,0,0-6.15,0Z" transform="translate(-0.802 -5.082)" fill="none" stroke="#000926" stroke-linecap="round" stroke-linejoin="round" stroke-width="1.207"/>
        <path id="Path_1123" data-name="Path 1123" d="M38.936,47.294l.7-24.534H34.764l.713,24.534ZM37.211,57.766a2.887,2.887,0,0,0,2.184-.938,3.553,3.553,0,0,0,0-4.528,3.094,3.094,0,0,0-4.341,0,3.488,3.488,0,0,0,0,4.528,2.9,2.9,0,0,0,2.175.938Z" transform="translate(-2.814 -6.11)" fill="#000926"/>
      </g>
    </g>
  </g>
</svg>
