<svg xmlns="http://www.w3.org/2000/svg" xmlns:xlink="http://www.w3.org/1999/xlink" width="70" height="70" viewBox="0 0 70 70">
  <defs>
    <clipPath id="clip-path">
      <path id="Intersection_11" data-name="Intersection 11" d="M0,49.218V0H67.265V49.218Z" fill="#000926"/>
    </clipPath>
    <clipPath id="clip-path-2">
      <path id="Path_1134" data-name="Path 1134" d="M2.25,61.919H69.516V12.7H2.25V61.919Z" transform="translate(-2.25 -12.7)" fill="none"/>
    </clipPath>
  </defs>
  <g id="Marketing" transform="translate(0.105)">
    <rect id="Rectangle_565" data-name="Rectangle 565" width="70" height="70" transform="translate(-0.105)" fill="none"/>
    <g id="Marketing-2" data-name="Marketing" transform="translate(1.942 11.906)">
      <g id="Group_300" data-name="Group 300" transform="translate(0)" clip-path="url(#clip-path)">
        <g id="Group_299" data-name="Group 299" transform="translate(0 0)" clip-path="url(#clip-path-2)">
          <path id="Path_1127" data-name="Path 1127" d="M58.829,25.059A5.859,5.859,0,1,1,64.689,19.2a5.859,5.859,0,0,1-5.859,5.859Zm0-9.309A3.45,3.45,0,1,0,62.27,19.2h0a3.45,3.45,0,0,0-3.441-3.45Z" transform="translate(-5.42 -12.74)" fill="#000926"/>
          <path id="Path_1128" data-name="Path 1128" d="M60.808,18.924l-1.875-1.05a.675.675,0,0,0-1,.591v2.053a.675.675,0,0,0,.675.675.684.684,0,0,0,.328-.084l1.875-1.041a.666.666,0,0,0,.262-.938.591.591,0,0,0-.262-.206Z" transform="translate(-5.73 -13.018)" fill="#000926"/>
          <path id="Path_1129" data-name="Path 1129" d="M58.829,53.519a5.859,5.859,0,1,1,5.859-5.859,5.859,5.859,0,0,1-5.859,5.859Zm0-9.3a3.45,3.45,0,1,0,3.441,3.441h0A3.441,3.441,0,0,0,58.829,44.219Z" transform="translate(-5.42 -14.519)" fill="#000926"/>
          <path id="Path_1130" data-name="Path 1130" d="M66.609,39.289a5.859,5.859,0,1,1,5.859-5.859h0a5.859,5.859,0,0,1-5.859,5.859Zm0-9.3a3.441,3.441,0,1,0,3.441,3.441h0A3.441,3.441,0,0,0,66.609,29.989Z" transform="translate(-5.906 -13.629)" fill="#000926"/>
          <path id="Path_1131" data-name="Path 1131" d="M42.216,27.137V19.309a1.05,1.05,0,0,0-.066-.375,1.209,1.209,0,0,0-1.519-.778L25.556,22.937H9.009a2.681,2.681,0,0,0-2.681,2.681v1.275H4.191A1.941,1.941,0,0,0,2.25,28.834v8.006a1.941,1.941,0,0,0,1.941,1.941H6.328v1.275a2.681,2.681,0,0,0,2.681,2.681h.506v2.2a1.941,1.941,0,0,0,.937,1.631l3,13.191H9.7a1.209,1.209,0,0,0,0,2.419H39.994a1.209,1.209,0,0,0,0-2.419H22.641l-.375-13.331a1.969,1.969,0,0,0,.722-1.491v-2.2h2.578l15.066,4.781a1.238,1.238,0,0,0,.366.056h0a1.209,1.209,0,0,0,1.209-1.209V38.537a5.934,5.934,0,0,0,0-11.4ZM4.669,36.362v-7.05H6.328v7.05Zm4.078,3.75V25.619a.262.262,0,0,1,.262-.262H24.516v15H9.009a.262.262,0,0,1-.263-.291ZM15.872,59.8,12.938,46.881h6.891l.366,12.881Zm4.687-15.3H11.9V42.737h8.662Zm19.228.253L37.716,44.1V37.956a1.209,1.209,0,0,0-2.419,0v5.363l-8.334-2.644V25.028L35.3,22.384V33.372h0a1.209,1.209,0,1,0,2.419,0V21.616l2.072-.656V37.544h0Zm2.428-8.766V29.725a3.534,3.534,0,0,1,0,6.225Z" transform="translate(-2.25 -13.037)" fill="#000926"/>
          <path id="Path_1132" data-name="Path 1132" d="M68.188,33.264l-1.875-1.05a.675.675,0,0,0-1,.591V34.9a.675.675,0,0,0,.675.675.637.637,0,0,0,.328-.084l1.875-1.05a.666.666,0,0,0,0-1.172Z" transform="translate(-6.191 -13.914)" fill="#000926"/>
          <path id="Path_1133" data-name="Path 1133" d="M60.387,47.344,58.512,46.3a.675.675,0,0,0-.937.263.684.684,0,0,0-.084.328v2.091a.675.675,0,0,0,.675.675.684.684,0,0,0,.328-.084l1.875-1.05a.675.675,0,0,0,.253-.938.75.75,0,0,0-.253-.263Z" transform="translate(-5.702 -14.794)" fill="#000926"/>
        </g>
      </g>
    </g>
  </g>
</svg>
