<svg xmlns="http://www.w3.org/2000/svg" xmlns:xlink="http://www.w3.org/1999/xlink" width="70" height="70" viewBox="0 0 70 70">
  <defs>
    <clipPath id="clip-path">
      <path id="Intersection_12" data-name="Intersection 12" d="M0,54.281V0H68.4V54.281Z" fill="#000926"/>
    </clipPath>
    <clipPath id="clip-path-2">
      <path id="Path_1149" data-name="Path 1149" d="M1.04,62.281h68.4V8H1.04V62.281Z" transform="translate(-1.04 -8)" fill="none"/>
    </clipPath>
  </defs>
  <g id="Oper" transform="translate(0.095)">
    <rect id="Rectangle_566" data-name="Rectangle 566" width="70" height="70" transform="translate(-0.095)" fill="none"/>
    <g id="Operations_efficiency" data-name="Operations efficiency" transform="translate(1.13 7.5)">
      <g id="Group_302" data-name="Group 302" clip-path="url(#clip-path)">
        <g id="Group_301" data-name="Group 301" transform="translate(0 0)" clip-path="url(#clip-path-2)">
          <path id="Path_1137" data-name="Path 1137" d="M31.265,57.5a2.812,2.812,0,1,1-2.813-2.812h0A2.813,2.813,0,0,1,31.218,57.5Z" transform="translate(-2.577 -10.918)" fill="#000926"/>
          <path id="Path_1138" data-name="Path 1138" d="M56.035,36.732a2.812,2.812,0,1,1-2.766-2.813A2.812,2.812,0,0,1,56.035,36.732Z" transform="translate(-4.126 -9.62)" fill="#000926"/>
          <path id="Path_1139" data-name="Path 1139" d="M26.865,15.952A2.813,2.813,0,1,1,24.1,13.14,2.812,2.812,0,0,1,26.865,15.952Z" transform="translate(-2.302 -8.321)" fill="#000926"/>
          <path id="Path_1140" data-name="Path 1140" d="M16.8,17.294H2.294A1.228,1.228,0,0,1,1,16.085,1.247,1.247,0,0,1,2.209,14.81H16.8a1.243,1.243,0,0,1,0,2.484Z" transform="translate(-1.037 -8.426)" fill="#000926"/>
          <path id="Path_1141" data-name="Path 1141" d="M69.886,17.294H30.652A1.247,1.247,0,0,1,30.6,14.81H69.886A1.247,1.247,0,0,1,71.1,16.085,1.228,1.228,0,0,1,69.886,17.294Z" transform="translate(-2.818 -8.426)" fill="#000926"/>
          <path id="Path_1142" data-name="Path 1142" d="M44.133,38.074H2.3a1.247,1.247,0,0,1-.056-2.484H44.133a1.247,1.247,0,0,1,.056,2.484Z" transform="translate(-1.046 -9.724)" fill="#000926"/>
          <path id="Path_1143" data-name="Path 1143" d="M71.712,38.074H59.824a1.247,1.247,0,0,1,0-2.484H71.712a1.247,1.247,0,0,1,0,2.484Z" transform="translate(-4.643 -9.724)" fill="#000926"/>
          <path id="Path_1144" data-name="Path 1144" d="M70.163,58.834H35.054a1.247,1.247,0,0,1,0-2.484H70.163a1.247,1.247,0,0,1,0,2.484Z" transform="translate(-3.095 -11.022)" fill="#000926"/>
          <path id="Path_1145" data-name="Path 1145" d="M20.923,58.834H2.3a1.247,1.247,0,0,1,0-2.484H20.923a1.247,1.247,0,0,1,0,2.484Z" transform="translate(-1.048 -11.022)" fill="#000926"/>
          <path id="Path_1146" data-name="Path 1146" d="M23.8,22.946a7.284,7.284,0,1,1,5.154-2.137A7.3,7.3,0,0,1,23.8,22.946Zm0-12.113a4.819,4.819,0,1,0,4.8,4.819h0A4.809,4.809,0,0,0,23.8,10.834Z" transform="translate(-2.005 -8.021)" fill="#000926"/>
          <path id="Path_1147" data-name="Path 1147" d="M52.972,43.726a7.3,7.3,0,1,1,7.284-7.3h0a7.3,7.3,0,0,1-7.284,7.294Zm0-12.112a4.819,4.819,0,1,0,4.8,4.819A4.819,4.819,0,0,0,52.972,31.614Z" transform="translate(-3.828 -9.32)" fill="#000926"/>
          <path id="Path_1148" data-name="Path 1148" d="M28.2,64.506a7.3,7.3,0,1,1,7.275-7.3h0a7.3,7.3,0,0,1-7.275,7.3Zm0-12.112A4.819,4.819,0,1,0,33,57.2a4.819,4.819,0,0,0-4.8-4.809Z" transform="translate(-2.279 -10.619)" fill="#000926"/>
        </g>
      </g>
    </g>
  </g>
</svg>
