<svg xmlns="http://www.w3.org/2000/svg" xmlns:xlink="http://www.w3.org/1999/xlink" width="70" height="70" viewBox="0 0 70 70">
  <defs>
    <clipPath id="clip-path">
      <path id="Intersection_13" data-name="Intersection 13" d="M0,60.937V0H68.988V60.937Z" fill="#000926"/>
    </clipPath>
    <clipPath id="clip-path-2">
      <path id="Path_1162" data-name="Path 1162" d="M.48,65.938H69.467V5H.48V65.938Z" transform="translate(-0.48 -5)" fill="none"/>
    </clipPath>
  </defs>
  <g id="PD" transform="translate(0.086)">
    <rect id="Rectangle_567" data-name="Rectangle 567" width="69.846" height="70" transform="translate(-0.086)" fill="none"/>
    <g id="Group_304" data-name="Group 304" transform="translate(0.926 4.688)" clip-path="url(#clip-path)">
      <g id="Group_303" data-name="Group 303" transform="translate(0 0)" clip-path="url(#clip-path-2)">
        <path id="Path_1152" data-name="Path 1152" d="M61.924,46.156H8.914A1.245,1.245,0,0,1,7.67,44.909V8.75A3.746,3.746,0,0,1,11.412,5H59.427a3.746,3.746,0,0,1,3.742,3.75V44.909a1.236,1.236,0,0,1-1.244,1.247Zm-51.794-2.5H60.643V8.75a1.255,1.255,0,0,0-1.216-1.228H11.384A1.245,1.245,0,0,0,10.14,8.75Z" transform="translate(-0.944 -5)" fill="#000926"/>
        <path id="Path_1153" data-name="Path 1153" d="M56.225,41.389H15.281a2.154,2.154,0,0,1-2.151-2.156V12.626a2.154,2.154,0,0,1,2.151-2.156H56.225a2.154,2.154,0,0,1,2.151,2.156V39.233A2.154,2.154,0,0,1,56.225,41.389Zm-40.6-2.5H55.851V12.973H15.628Z" transform="translate(-1.297 -5.342)" fill="#000926"/>
        <path id="Path_1154" data-name="Path 1154" d="M65.435,68.43h-61A3.961,3.961,0,0,1,.48,64.474a4.03,4.03,0,0,1,.29-1.491L7.262,47.046A1.235,1.235,0,0,1,8.45,46.23H61.488a1.263,1.263,0,0,1,1.169.788L69.14,62.955a3.959,3.959,0,0,1-2.17,5.156,4.089,4.089,0,0,1-1.5.291ZM9.31,48.742,3.09,63.921a1.464,1.464,0,0,0,.8,1.875,1.6,1.6,0,0,0,.552.1h61a1.451,1.451,0,0,0,1.459-1.453,1.606,1.606,0,0,0-.1-.553L60.618,48.7Z" transform="translate(-0.48 -7.577)" fill="#000926"/>
        <path id="Path_1155" data-name="Path 1155" d="M27.742,25.07a3.75,3.75,0,1,1,3.742-3.75A3.746,3.746,0,0,1,27.742,25.07Zm0-4.959a1.217,1.217,0,1,0,.869.357A1.227,1.227,0,0,0,27.742,20.111Z" transform="translate(-1.999 -5.786)" fill="#000926"/>
        <path id="Path_1156" data-name="Path 1156" d="M44.192,35.36a3.75,3.75,0,1,1,3.742-3.75h0A3.746,3.746,0,0,1,44.192,35.36Zm0-4.959a1.228,1.228,0,1,0,1.225,1.228h0A1.227,1.227,0,0,0,44.192,30.4Z" transform="translate(-3.061 -6.429)" fill="#000926"/>
        <path id="Path_1157" data-name="Path 1157" d="M24.869,22.753H19.256a1.256,1.256,0,1,1,0-2.5h5.613a1.256,1.256,0,1,1,0,2.5Z" transform="translate(-1.605 -5.953)" fill="#000926"/>
        <path id="Path_1158" data-name="Path 1158" d="M53.638,22.753H30.571a1.256,1.256,0,0,1,0-2.5H53.638a1.256,1.256,0,0,1,0,2.5Z" transform="translate(-2.349 -5.953)" fill="#000926"/>
        <path id="Path_1159" data-name="Path 1159" d="M40.263,33.044H19.244a1.247,1.247,0,0,1,0-2.494H40.263a1.247,1.247,0,0,1,0,2.494Z" transform="translate(-1.611 -6.597)" fill="#000926"/>
        <path id="Path_1160" data-name="Path 1160" d="M54.694,33.044h-7.68a1.247,1.247,0,0,1,0-2.494h7.68a1.247,1.247,0,0,1,0,2.494Z" transform="translate(-3.405 -6.597)" fill="#000926"/>
        <path id="Path_1161" data-name="Path 1161" d="M56.69,62.884H14.914a1.247,1.247,0,0,1,0-2.494H56.69a1.247,1.247,0,0,1,0,2.494Z" transform="translate(-1.332 -8.462)" fill="#000926"/>
      </g>
    </g>
  </g>
</svg>
