<svg xmlns="http://www.w3.org/2000/svg" xmlns:xlink="http://www.w3.org/1999/xlink" width="70" height="70" viewBox="0 0 70 70">
  <defs>
    <clipPath id="clip-path">
      <path id="Path_1178" data-name="Path 1178" d="M4.76,70.348H69.326V.56H4.76V70.348Z" transform="translate(-4.76 -0.56)" fill="none"/>
    </clipPath>
  </defs>
  <g id="Underwriting" transform="translate(0.209 -0.469)">
    <rect id="Rectangle_568" data-name="Rectangle 568" width="70" height="70" transform="translate(-0.209 0.469)" fill="none"/>
    <path id="Path_1165" data-name="Path 1165" d="M4.76,70.348H69.326V.56H4.76V70.348Z" transform="translate(-0.632 0.122)" fill="none" fill-rule="evenodd"/>
    <g id="Group_305" data-name="Group 305" transform="translate(4.128 0.682)" clip-path="url(#clip-path)">
      <path id="Path_1166" data-name="Path 1166" d="M67.166,60.376a1.406,1.406,0,0,1-.441-.075l-1.6-.609a14.063,14.063,0,0,0-9.872,0l-1.631.609a1.247,1.247,0,0,1-1.594-.731,1.294,1.294,0,0,1-.075-.422V10.4A1.238,1.238,0,0,1,53.178,9.16h14A1.237,1.237,0,0,1,68.4,10.4v48.75A1.237,1.237,0,0,1,67.166,60.376Zm-7.013-4.05a16.6,16.6,0,0,1,5.775,1.041V11.588H54.4V57.357a16.585,16.585,0,0,1,5.766-1.031Z" transform="translate(-7.709 -1.097)" fill="#000926"/>
      <path id="Path_1167" data-name="Path 1167" d="M60.16,73.675a1.247,1.247,0,0,1-1.022-.478l-7-10.1a1.239,1.239,0,1,1,2.034-1.416l5.991,8.6,5.981-8.6A1.239,1.239,0,1,1,68.176,63.1l-7,10.1a1.247,1.247,0,0,1-1.012.525Z" transform="translate(-7.707 -4.347)" fill="#000926"/>
      <path id="Path_1168" data-name="Path 1168" d="M60.626,58.774a1.238,1.238,0,0,1-1.238-1.228V10.333a1.238,1.238,0,1,1,2.447-.056V57.546A1.238,1.238,0,0,1,60.6,58.774Z" transform="translate(-8.173 -1.08)" fill="#000926"/>
      <path id="Path_1169" data-name="Path 1169" d="M67.081,11.051H53.019A2.981,2.981,0,0,1,50,8.06V4.582A4.022,4.022,0,0,1,54.041.56h12a4.031,4.031,0,0,1,4.031,4.022V8.06A3,3,0,0,1,67.081,11.051ZM54.041,3.035a1.556,1.556,0,0,0-1.556,1.547V8.06A.516.516,0,0,0,53,8.576H67.063a.516.516,0,0,0,.516-.516V4.591a1.556,1.556,0,0,0-1.538-1.556Z" transform="translate(-7.587 -0.56)" fill="#000926"/>
      <path id="Path_1170" data-name="Path 1170" d="M42.762,12.745H5.994a1.239,1.239,0,0,1-.131-2.475h36.9a1.238,1.238,0,0,1,0,2.475Z" transform="translate(-4.756 -1.167)" fill="#000926"/>
      <path id="Path_1171" data-name="Path 1171" d="M42.773,21.6H6A1.238,1.238,0,0,1,6,19.13H42.773a1.238,1.238,0,0,1,0,2.466Z" transform="translate(-4.767 -1.721)" fill="#000926"/>
      <path id="Path_1172" data-name="Path 1172" d="M42.766,30.455H6A1.238,1.238,0,1,1,6,27.98H42.766a1.238,1.238,0,0,1,0,2.475Z" transform="translate(-4.76 -2.274)" fill="#000926"/>
      <path id="Path_1173" data-name="Path 1173" d="M42.773,39.316H6A1.237,1.237,0,0,1,6,36.85H42.773a1.238,1.238,0,1,1,.056,2.475Z" transform="translate(-4.767 -2.828)" fill="#000926"/>
      <path id="Path_1174" data-name="Path 1174" d="M42.764,48.165H5.995A1.238,1.238,0,1,1,5.92,45.69H42.764a1.238,1.238,0,1,1,.056,2.466Z" transform="translate(-4.757 -3.38)" fill="#000926"/>
      <path id="Path_1175" data-name="Path 1175" d="M42.773,57.026H6A1.237,1.237,0,0,1,6,54.56H42.773a1.238,1.238,0,0,1,0,2.466Z" transform="translate(-4.767 -3.935)" fill="#000926"/>
      <path id="Path_1176" data-name="Path 1176" d="M42.773,65.836H6A1.237,1.237,0,0,1,6,63.37H42.773a1.237,1.237,0,1,1,0,2.475Z" transform="translate(-4.767 -4.486)" fill="#000926"/>
      <path id="Path_1177" data-name="Path 1177" d="M68,74.735H5.995A1.238,1.238,0,0,1,5.92,72.26H67.982a1.238,1.238,0,0,1,0,2.466Z" transform="translate(-4.757 -5.041)" fill="#000926"/>
    </g>
    <path id="Path_1179" data-name="Path 1179" d="M4.76.56H69.326V70.348H4.76V.56Z" transform="translate(-0.632 0.122)" fill="none" fill-rule="evenodd"/>
  </g>
</svg>
