<svg xmlns="http://www.w3.org/2000/svg" width="100" height="100" viewBox="0 0 100 100">
  <g id="Group_1667" data-name="Group 1667" transform="translate(-218 -1749)">
    <g id="Agnostic_Solutions" data-name="Agnostic Solutions" transform="translate(218 1749)">
      <rect id="Rectangle_245" data-name="Rectangle 245" width="100" height="100" fill="#fff" opacity="0"/>
      <path id="Path_98" data-name="Path 98" d="M48.576,6.93a35.488,35.488,0,0,1,29.7,54.907L93.633,78.56l-10.6,9.676L68.275,71.953a35.528,35.528,0,0,1-44.764-4.444,36.608,36.608,0,0,1-4.738-5.886l7.581-.908c.6.734,1.241,1.441,1.909,2.109A28.881,28.881,0,0,0,70.183,23.146c-.374-.4-.761-.774-1.148-1.148h0a28.908,28.908,0,0,0-45.858,6.673L15.33,30.006A35.328,35.328,0,0,1,48.576,6.93Z" transform="translate(5.13 2.319)" fill="#002c67" fill-rule="evenodd"/>
      <path id="Path_99" data-name="Path 99" d="M65.176,22.262c-9.022-6.887-21.648-5.445-28.294,3.19a19.085,19.085,0,0,0-3.737,8.395L6.239,37.6.66,44.831l7.127,5.512L11.951,44.9l5.979,4.564,4.564-5.952,5.7,4.364,5.752-4.111a20.82,20.82,0,0,0,7.207,9.85c8.942,6.9,21.688,5.459,28.294-3.2a20.14,20.14,0,0,0-4.271-28.147Zm2.669,16.9H63.708a11.491,11.491,0,0,1-9.342,9.81v3.764H51.109v-3.59a11.464,11.464,0,0,1-9.956-9.182H37.576V36.716h4a11.545,11.545,0,0,1,9.529-10.263v-3.23H54.3v3.19h0a11.091,11.091,0,0,1,9.342,9.556h4.2Z" transform="translate(0.221 5.992)" fill="#ff5d2e" fill-rule="evenodd"/>
      <circle id="Ellipse_15" data-name="Ellipse 15" cx="4.5" cy="4.5" r="4.5" transform="translate(48 39)" fill="#002c67"/>
    </g>
  </g>
</svg>
