<svg xmlns="http://www.w3.org/2000/svg" width="100" height="100" viewBox="0 0 100 100">
  <g id="Group_1672" data-name="Group 1672" transform="translate(-1029 -2335)">
    <g id="Domain_Expertise" data-name="Domain Expertise" transform="translate(1029 2335)">
      <rect id="Rectangle_246" data-name="Rectangle 246" width="100" height="100" fill="#fff" opacity="0"/>
      <path id="Path_100" data-name="Path 100" d="M36.1,66.467l5.08,14.96,2.56-8.88L42.49,71.213a2.107,2.107,0,0,1-.373-2.173c.68-1.333,2.08-1.093,3.4-1.093s3.067-.253,3.493,1.467a2.227,2.227,0,0,1-.427,1.8L47.25,72.547l2.56,8.88,4.613-14.96c3.32,2.987,13.147,3.587,16.813,5.627a9.813,9.813,0,0,1,3.04,2.573c2.28,3.013,2.453,3.213,3.04,6.96a3.373,3.373,0,0,1-3.453,3.28H16.73a3.36,3.36,0,0,1-3.52-3.28c.587-3.747.76-4,3.04-6.96a9.334,9.334,0,0,1,3.04-2.573C22.943,70.053,32.783,69.427,36.1,66.467ZM33.8,44.907a2.813,2.813,0,0,0-1.427.373,1.08,1.08,0,0,0-.413.48,1.493,1.493,0,0,0-.133.76,6.813,6.813,0,0,0,1.333,3.293h0L36,54.333a24.48,24.48,0,0,0,3.813,5.013,7.773,7.773,0,0,0,5.453,2.187,8,8,0,0,0,5.76-2.293,25.333,25.333,0,0,0,3.933-5.333l3.2-5.333a5.24,5.24,0,0,0,.68-2.8c-.093-.32-.44-.48-1.027-.507h-.84a.773.773,0,0,1-.253,0,4,4,0,0,1-.88,0l1.093-4.84a24.907,24.907,0,0,1-14.587-4.12c-1.56-.987-2.027-2.133-3.587-2.027a5.333,5.333,0,0,0-2.947,1.6,7.64,7.64,0,0,0-1.693,3.333l.653,5.693a4,4,0,0,1-.973,0Zm25.147-1.013a2.053,2.053,0,0,1,1.493,1.547,6.493,6.493,0,0,1-.773,3.88h0v.093l-3.24,5.333a26.2,26.2,0,0,1-4.2,5.707,9.667,9.667,0,0,1-6.867,2.667,9.334,9.334,0,0,1-6.534-2.668A25.614,25.614,0,0,1,34.73,55.12L31.89,50.6a8.28,8.28,0,0,1-1.627-4.053,3.333,3.333,0,0,1,.28-1.48,2.747,2.747,0,0,1,.973-1.133,3.253,3.253,0,0,1,.68-.347,74.388,74.388,0,0,1-.133-8.12,11.174,11.174,0,0,1,.347-1.84,10.827,10.827,0,0,1,4.773-6.053A12.6,12.6,0,0,1,39.77,26.24c5.453-1.987,12.693-.893,16.56,3.293a10.987,10.987,0,0,1,2.787,6.96Z" transform="translate(4.403 8.427)" fill="#002c67" fill-rule="evenodd"/>
      <path id="Path_101" data-name="Path 101" d="M23.16,73.38a2.934,2.934,0,0,0-.227-.333c-.36-.587-.72-1.147-1.093-1.8s-.733-1.333-1.067-2a22.5,22.5,0,0,1-.92-2.067c-.28-.733-.493-1.333-.773-2.16a2.907,2.907,0,0,0-2.8-1.933H8.36a1.76,1.76,0,0,1-.733-.133,1.947,1.947,0,0,1-.547-.387,2.226,2.226,0,0,1-.4-.533,1.4,1.4,0,0,1-.147-.693V51.433a2.027,2.027,0,0,1,.107-.68,2.253,2.253,0,0,1,.453-.627,1.333,1.333,0,0,1,.533-.36,1.693,1.693,0,0,1,.72-.133h7.2a2.973,2.973,0,0,0,2.893-2.4c.173-.773.36-1.493.533-2.133s.467-1.413.733-2.133a17.56,17.56,0,0,1,.907-2.08c.32-.72.68-1.333.987-1.987a2.853,2.853,0,0,0-.493-3.427l-5.613-5.667H15.4a1.987,1.987,0,0,1-.4-.533,1.333,1.333,0,0,1-.093-.627,1.467,1.467,0,0,1,.133-.68,2.027,2.027,0,0,1,.453-.64l6.92-6.88a1.773,1.773,0,0,1,.64-.453,1.467,1.467,0,0,1,.68-.133,1.507,1.507,0,0,1,.68.133,2.547,2.547,0,0,1,.587.4h0l5.027,4.893a2.907,2.907,0,0,0,3.653.307c.587-.347,1.16-.693,1.827-1.04l2-1a20.142,20.142,0,0,1,2.093-.867c.76-.253,1.333-.48,2.187-.733a2.787,2.787,0,0,0,1.947-2.667V11.82a1.627,1.627,0,0,1,.133-.707,4.92,4.92,0,0,1,.347-.627,1.333,1.333,0,0,1,.533-.347,1.653,1.653,0,0,1,.72-.133H53.08a1.733,1.733,0,0,1,.72.133,1.187,1.187,0,0,1,.533.347,5.174,5.174,0,0,1,.36.507,1.587,1.587,0,0,1,.133.707v7.467a2.92,2.92,0,0,0,1.96,2.76c.853.267,1.573.533,2.2.76s1.427.6,2.107.907l2.027,1.053c.667.36,1.253.72,1.827,1.08a2.827,2.827,0,0,0,3.68-.32L73.693,20.3h0a1.84,1.84,0,0,1,.587-.4,1.333,1.333,0,0,1,.667-.133,1.507,1.507,0,0,1,.68.133,2,2,0,0,1,.627.453l6.88,6.933a1.773,1.773,0,0,1,.453.64,1.44,1.44,0,0,1,.133.68,1.333,1.333,0,0,1-.093.627,2.066,2.066,0,0,1-.4.533h-.093l-5.56,5.667a2.88,2.88,0,0,0-.493,3.427c.32.64.68,1.333.987,1.987a21.228,21.228,0,0,1,.893,2.08c.267.72.493,1.413.72,2.133s.36,1.333.533,2.133a2.96,2.96,0,0,0,2.867,2.4H90.2a1.693,1.693,0,0,1,.72.133,1.147,1.147,0,0,1,.533.36,2.573,2.573,0,0,1,.453.627,2.987,2.987,0,0,1,.093.68v9.893a1.627,1.627,0,0,1-.133.707,2.347,2.347,0,0,1-.387.533,1.52,1.52,0,0,1-1.227.52H82.64a2.827,2.827,0,0,0-2.667,1.933c-.267.827-.52,1.533-.747,2.147s-.573,1.413-.88,2.08a46.05,46.05,0,0,1-2.28,4.12h6.667c.293-.573.587-1.2.88-1.84s.733-1.627,1.053-2.453a1.632,1.632,0,0,1,.187-.453h5.813a7.853,7.853,0,0,0,2.933-.533,7.747,7.747,0,0,0,2.507-1.68,6.92,6.92,0,0,0,1.68-2.507,8.107,8.107,0,0,0,.533-2.933V51.82a7.693,7.693,0,0,0-.6-2.893,7.053,7.053,0,0,0-1.627-2.453h0a7.467,7.467,0,0,0-5.333-2.28H85.733a.907.907,0,0,0-.093-.36c-.267-.853-.533-1.72-.853-2.533s-.68-1.693-1.04-2.453a2.975,2.975,0,0,1-.187-.36l4.107-4.24a6.667,6.667,0,0,0,1.707-2.427,8,8,0,0,0,.587-2.947,7.12,7.12,0,0,0-.587-2.933,8,8,0,0,0-1.707-2.427h0l-6.8-6.747A8.093,8.093,0,0,0,78.4,15.14a7.267,7.267,0,0,0-2.907-.587,7.76,7.76,0,0,0-5.333,2.213l-3.493,3.427L66.4,20.06c-.72-.4-1.52-.76-2.373-1.16l-2.413-1.027-.44-.173V12.007a7.507,7.507,0,0,0-.56-2.853A7.667,7.667,0,0,0,58.96,6.7a8,8,0,0,0-2.467-1.64,8.187,8.187,0,0,0-2.907-.52h-7.84a8.187,8.187,0,0,0-2.907.52A8.467,8.467,0,0,0,40.373,6.7,7.453,7.453,0,0,0,38.72,9.153a7.613,7.613,0,0,0-.533,2.867v5.56c-.133,0-.307.133-.44.187-.813.32-1.613.68-2.427,1.04a26.251,26.251,0,0,0-2.373,1.187l-.267.133L29.187,16.62a7.12,7.12,0,0,0-2.48-1.68,7.4,7.4,0,0,0-2.907-.587,7,7,0,0,0-2.907.587,7.853,7.853,0,0,0-2.48,1.68L11.56,23.513h0a8.2,8.2,0,0,0-1.653,2.453A7.347,7.347,0,0,0,9.32,28.9a8,8,0,0,0,.547,2.92,6.88,6.88,0,0,0,1.707,2.4l4,4.133a3.054,3.054,0,0,1-.173.36c-.347.773-.667,1.587-1.027,2.453s-.587,1.667-.853,2.533a1.2,1.2,0,0,0-.093.36H8.573a6.84,6.84,0,0,0-2.907.6,7.053,7.053,0,0,0-2.413,1.68h0A7.28,7.28,0,0,0,1.64,48.78,7.893,7.893,0,0,0,1,51.82v9.187a8,8,0,0,0,.533,2.933,7.213,7.213,0,0,0,1.68,2.507,7.28,7.28,0,0,0,2.507,1.64,8,8,0,0,0,2.933.533h5.813a1.632,1.632,0,0,0,.187.453c.32.827.68,1.64,1.053,2.453s.587,1.333.88,1.84H23.16Z" transform="translate(0.333 1.513)" fill="#ff5d2e" fill-rule="evenodd"/>
    </g>
  </g>
</svg>
