<svg xmlns="http://www.w3.org/2000/svg" width="100" height="100" viewBox="0 0 100 100">
  <g id="Group_1670" data-name="Group 1670" transform="translate(-218 -2043)">
    <g id="Group_1622" data-name="Group 1622" transform="translate(218 2042.667)">
      <rect id="Rectangle_247" data-name="Rectangle 247" width="100" height="100" transform="translate(0 0.333)" fill="#fff" opacity="0"/>
      <path id="Path_102" data-name="Path 102" d="M37.143,6h0ZM36.57,6Z" transform="translate(12.19 2)" fill="#fff" fill-rule="evenodd"/>
      <path id="Path_103" data-name="Path 103" d="M43.534,18.09h0a9.933,9.933,0,0,0-3.893-2.24V11.143a9.333,9.333,0,0,1,3.907,1.333v-3.4a9.16,9.16,0,0,0-3.907-.84V6.05H37.827V8.29a5.813,5.813,0,0,0-3.64,1.587,4.52,4.52,0,0,0-1.333,3.32,4.574,4.574,0,0,0,0,.747,4.293,4.293,0,0,0,1,2.32,9.587,9.587,0,0,0,4,2.333v4.52a7.427,7.427,0,0,1-1.013-.147,12.16,12.16,0,0,1-1.52-.427l-.693-.267a6.267,6.267,0,0,1-1.453-.813V24.9a10.227,10.227,0,0,0,4.68,1.133V28.7h1.813v-2.72a6.24,6.24,0,0,0,3.76-1.52,4.413,4.413,0,0,0,1.333-3.32,4.293,4.293,0,0,0-1.227-3.053Zm-5.72-2.973a3.107,3.107,0,0,1-.547-.32,2.147,2.147,0,0,1-1.173-1.813q0-1.48,1.72-1.8ZM41.36,21.7a1.6,1.6,0,0,1-1.333,1.267l-.4.093V19.317c1.187.52,1.773,1.173,1.773,1.987A2.067,2.067,0,0,1,41.36,21.7Z" transform="translate(10.946 2.017)" fill="#fff" fill-rule="evenodd"/>
      <path id="Path_104" data-name="Path 104" d="M78.894,34.83H54.721a15.347,15.347,0,0,0-10.867,4.52c-5.04,5.04-6.667,13.56-.773,21.467A13.627,13.627,0,0,0,52.774,65.6h26.12a1.333,1.333,0,0,0,1.333-1.333V36.163A1.333,1.333,0,0,0,78.894,34.83ZM73.561,59.737H55.894a9.52,9.52,0,0,1,0-19.04H73.627Z" transform="translate(13.106 11.61)" fill="#ff5d2e" fill-rule="evenodd"/>
      <circle id="Ellipse_16" data-name="Ellipse 16" cx="4" cy="4" r="4" transform="translate(69 57.333)" fill="#ff5d2e"/>
      <path id="Path_105" data-name="Path 105" d="M82.733,42.341v-3.16a8.973,8.973,0,0,0-3.653-7.32V30.528a8.68,8.68,0,0,0-8.693-8.68H65.053V20.515a18.133,18.133,0,0,0-36.173-.347H16a7.867,7.867,0,0,0-8,7.667V84.5a7.867,7.867,0,0,0,8,7.667H74.667c4,0,8.093-2.947,8.107-6.667h0V79.715H76.88v3.52A3.027,3.027,0,0,1,73.907,86.3H17.52a2.92,2.92,0,0,1-2.853-2.92V29.875a2.933,2.933,0,0,1,2.92-2.92h12.2a16.92,16.92,0,0,0,1.507,2.933H22.307a1.133,1.133,0,0,0-1.12,1.12v4.733H72.72a4.187,4.187,0,0,1,4.16,4.173v2.427ZM51.667,25.288a6.24,6.24,0,0,1-3.76,1.547V29.5H46.093V26.835A10.227,10.227,0,0,1,41.413,25.7V22.315a6.267,6.267,0,0,0,1.453.813l.693.267a12.16,12.16,0,0,0,1.52.427,7.427,7.427,0,0,0,1.013.147v-4.52a9.587,9.587,0,0,1-4-2.333,4.293,4.293,0,0,1-.96-2.28,4.573,4.573,0,0,1,0-.747,4.52,4.52,0,0,1,1.333-3.32,5.813,5.813,0,0,1,3.64-1.587V6.835H47.92V9.088a9.16,9.16,0,0,1,3.907.84v3.347a9.333,9.333,0,0,0-3.907-1.333v4.693a9.933,9.933,0,0,1,3.893,2.24h0a4.293,4.293,0,0,1,1.16,3.027A4.413,4.413,0,0,1,51.667,25.288Zm23,4.64H62.773a17.906,17.906,0,0,0,1.507-2.933h7.627a2.773,2.773,0,0,1,2.76,2.733Z" transform="translate(2.667 1.165)" fill="#002c67" fill-rule="evenodd"/>
      <path id="Path_106" data-name="Path 106" d="M37.143,6h0ZM36.57,6Z" transform="translate(12.19 2)" fill="#fff"/>
      <path id="Path_107" data-name="Path 107" d="M39.693,17.973a2.067,2.067,0,0,1,0,.413,1.6,1.6,0,0,1-1.333,1.267l-.4.093V16C39.107,16.507,39.693,17.16,39.693,17.973Z" transform="translate(12.653 5.333)" fill="#002c67"/>
      <path id="Path_108" data-name="Path 108" d="M37,9.9v3.933a3.107,3.107,0,0,1-.547-.32A2.147,2.147,0,0,1,35.28,11.7Q35.28,10.22,37,9.9Z" transform="translate(11.76 3.3)" fill="#002c67"/>
    </g>
  </g>
</svg>
