<svg xmlns="http://www.w3.org/2000/svg" width="100" height="100" viewBox="0 0 100 100">
  <g id="Group_1669" data-name="Group 1669" transform="translate(-1029 -2041)">
    <g id="Responsiveness" transform="translate(1029 2041)">
      <rect id="Rectangle_248" data-name="Rectangle 248" width="100" height="100" fill="#fff" opacity="0"/>
      <path id="Path_109" data-name="Path 109" d="M61.593,8H18.22a12,12,0,0,0-12,12V46.667a12,12,0,0,0,12,12h.133L17.393,72.6v.12a2,2,0,0,0,.493,1.333,2.027,2.027,0,0,0,2.853.187L38.913,58.667H61.58a12,12,0,0,0,12-12V20A12,12,0,0,0,61.593,8Zm7.813,38.587a7.893,7.893,0,0,1-7.853,7.88H38.367a1.96,1.96,0,0,0-1.333.587L22.153,67.867,22.94,56.64v-.16a2.04,2.04,0,0,0-1.92-2.013H18.527a8.253,8.253,0,0,1-5.72-2.32,7.8,7.8,0,0,1-2.36-5.587V20a8,8,0,0,1,8.08-7.88H61.553A7.893,7.893,0,0,1,69.407,20Z" transform="translate(2.073 2.667)" fill="#002c67" fill-rule="evenodd"/>
      <path id="Path_110" data-name="Path 110" d="M32.04,33.52l-8.16-.76,8.373-16.44h9.253L34.56,26.427l9.453,1.053L26.707,48.28l5.267-14.773Z" transform="translate(7.96 5.44)" fill="#ff5d2e" fill-rule="evenodd"/>
      <path id="Path_111" data-name="Path 111" d="M73.873,23.17A11.653,11.653,0,0,1,83.58,34.45v20a20.76,20.76,0,0,1-5.613,14.493,9.333,9.333,0,0,1-6.253,3.333H71.3l.987,14.107h0a.147.147,0,0,1,0,.107A1.76,1.76,0,0,1,70.5,88.277h0a1.747,1.747,0,0,1-1.147-.427L51.167,71.61H26.1l12-11.8H63.727a9.973,9.973,0,0,0,10.147-9.733Z" transform="translate(8.7 7.723)" fill="#002c67" fill-rule="evenodd"/>
    </g>
  </g>
</svg>
