<svg xmlns="http://www.w3.org/2000/svg" width="100" height="100" viewBox="0 0 100 100">
  <g id="Group_1668" data-name="Group 1668" transform="translate(-1029 -1749)">
    <g id="Robust_Models" data-name="Robust Models" transform="translate(1029 1749)">
      <rect id="Rectangle_249" data-name="Rectangle 249" width="100" height="100" fill="#fff" opacity="0"/>
      <path id="Path_112" data-name="Path 112" d="M43.989,17.927l1.8,1.8a5.869,5.869,0,0,1,0,8.249l-4.786,4.786a5.856,5.856,0,0,1-6.685,1.123l8.463-8.463a2.139,2.139,0,0,0,0-3.035l-1.631-1.631a2.139,2.139,0,0,0-3.035,0L29.711,29.17a5.856,5.856,0,0,1,1.2-6.457L35.7,17.927a5.869,5.869,0,0,1,8.249,0ZM35.713,48.261l1.751-.361-1.123-5.455-1.751.361,1.123,5.455ZM23.775,16.817l1.725-.428,1.337,5.348-1.725.441L23.775,16.83ZM42.01,45.24,43.24,43.9l-4.011-3.877-1.243,1.337L42,45.24Zm4.011-5.762.468-1.725-5.348-1.444-.468,1.725ZM14.47,27.325l.495-1.711,5.348,1.524-.481,1.711-5.348-1.524Zm2.968-6.39,1.27-1.257,3.93,3.93-1.257,1.27ZM15.5,46.416l1.8,1.8a5.842,5.842,0,0,0,8.249,0l4.773-4.773a5.882,5.882,0,0,0,1.136-6.685L23,45.226a2.139,2.139,0,0,1-3.035,0L18.334,43.6a2.139,2.139,0,0,1,0-3.035l8.409-8.409a5.856,5.856,0,0,0-6.457,1.217L15.5,38.141a5.842,5.842,0,0,0,0,8.249Z" transform="translate(4.648 5.469)" fill="#ff5d2e" fill-rule="evenodd"/>
      <path id="Path_113" data-name="Path 113" d="M3.4,7H96.011a2.674,2.674,0,0,1,2.674,2.674v61.5a2.674,2.674,0,0,1-2.674,2.674H3.4A2.674,2.674,0,0,1,.73,71.171V9.674A2.674,2.674,0,0,1,3.4,7ZM73.2,56.8l-7.166-4.011v-2.3L73.2,46.479v2.674l-4.987,2.487L73.2,54.206V56.88Zm1.5,1.965,2.594-14.332h1.524L76.145,58.778Zm5.668-1.952V54.139l4.947-2.473-4.947-2.553V46.439l7.166,4.011v2.273l-7.166,4.011Zm-43.1,21.043H62.054c0,4.291,1.832,8.128,6.618,11.15H30.663C34.487,86.238,37.348,82.869,37.268,77.856ZM49.661,65.075a3.417,3.417,0,1,0,0,.013ZM8.671,12.575H90.757a2.353,2.353,0,0,1,2.353,2.353V60.382a2.353,2.353,0,0,1-2.353,2.34H8.658a2.353,2.353,0,0,1-2.34-2.34V14.928A2.34,2.34,0,0,1,8.671,12.6Z" transform="translate(0.246 2.358)" fill="#002c67" fill-rule="evenodd"/>
      <rect id="Rectangle_250" data-name="Rectangle 250" width="15.722" height="4.492" rx="1" transform="translate(28.139 42.511) rotate(-45)" fill="#ff5d2e"/>
    </g>
  </g>
</svg>
