<svg xmlns="http://www.w3.org/2000/svg" width="100" height="100" viewBox="0 0 100 100">
  <g id="Group_1671" data-name="Group 1671" transform="translate(-218 -2327)">
    <g id="Training-Up-skilling" transform="translate(218 2327.333)">
      <rect id="Rectangle_251" data-name="Rectangle 251" width="100" height="100" transform="translate(0 -0.333)" fill="#fff" opacity="0"/>
      <path id="Path_114" data-name="Path 114" d="M2.133,72.281H12.28a1.747,1.747,0,0,1-1.333-1.693V24.894s.52-1.773,1.493-1.68h8a16.853,16.853,0,0,0-.467,2.4H13.427v44.2h72v-44.2h-5.6a9.453,9.453,0,0,0-.413-2.453H86.92c.973-.093,1.787,1.68,1.787,1.68V70.574a1.747,1.747,0,0,1-1.333,1.693H98.04a2.053,2.053,0,0,1,1.933,2.053h0a2.053,2.053,0,0,1-2.04,2.04H2.133A2.053,2.053,0,0,1,.08,74.308h0a2.053,2.053,0,0,1,2.053-2.027Zm19.24-9.813a1.227,1.227,0,1,1,0-2.453H69.307a1.227,1.227,0,1,1,0,2.453Zm.107-7.36a1.227,1.227,0,0,1,0-2.453H58.133a1.227,1.227,0,1,1,0,2.453Zm-.173-7.373a1.227,1.227,0,1,1,0-2.453H69.573a1.227,1.227,0,0,1,0,2.453ZM46.92,73.068h5.84a.8.8,0,0,1,1,.84h0a.747.747,0,0,1-1,.787H46.973a.747.747,0,0,1-1-.787h0a1.013,1.013,0,0,1,1-1h0Z" transform="translate(0.027 7.719)" fill="#002c67" fill-rule="evenodd"/>
      <path id="Path_115" data-name="Path 115" d="M63.7,37l-.253-9.16L48.393,32.188a19.187,19.187,0,0,1-8.173,0l-14.387-4.4v9.333c.413,4.827,14.267,6.307,18.52,6.52,3.4.16,16.867-1.613,18.667-4.4a4.987,4.987,0,0,0,.72-2.2Zm6.293-15.76V32.2h.36a.467.467,0,0,1,.453.467v3.16a.453.453,0,0,1-.453.453h-.36v1.107a1.093,1.093,0,0,1,.56.96h0a1.453,1.453,0,0,1-.973,1.213H67.846a1.453,1.453,0,0,1-.973-1.213h0c0-.48.667-.96.667-.96V36.281h-.36a.467.467,0,0,1-.467-.453v-3.16a.467.467,0,0,1,.467-.467h.36V21.894L49.366,27.588a20.307,20.307,0,0,1-9.96,0l-20.253-6.04L17.366,21c-2.28-.933-1.707-3.12.413-3.627l22.88-6.827a11.707,11.707,0,0,1,7.093,0l22.413,6.747c2.44.6,2.92,2.853.08,3.787l-.48.16Z" transform="translate(5.301 3.332)" fill="#ff5d2e" fill-rule="evenodd"/>
    </g>
  </g>
</svg>
